<?xml version="1.0" encoding="UTF-8"?>
<svg id="symbols" xmlns="http://www.w3.org/2000/svg" xmlns:xlink="http://www.w3.org/1999/xlink" version="1.1" viewBox="0 0 430.65 153.421">
  <!-- Generator: Adobe Illustrator 30.0.0, SVG Export Plug-In . SVG Version: 2.1.1 Build 123)  -->
  <defs>
    <style>
      .st0, .st1, .st2 {
        fill: none;
      }

      .st3 {
        fill: #3f424b;
      }

      .st4 {
        fill: #3f424b;
      }

      .st5 {
        fill-rule: evenodd;
      }

      .st5, .st6 {
        fill: #fff;
      }

      .st7 {
        fill: #f7f9f9;
      }

      .st7, .st1, .st2, .st8 {
        stroke: #b7b7b7;
        stroke-miterlimit: 10;
      }

      .st7, .st2 {
        stroke-width: .25px;
      }

      .st9 {
        fill: #009749;
      }

      .st10 {
        fill: #b7b7b7;
      }

      .st1, .st8 {
        stroke-width: .5px;
      }

      .st11 {
        fill: red;
      }

      .st8 {
        fill: url(#linear-gradient);
      }
    </style>
    <linearGradient id="linear-gradient" x1="420.849" y1="120.455" x2="427.579" y2="120.455" gradientTransform="translate(0 156) scale(1 -1)" gradientUnits="userSpaceOnUse">
      <stop offset="0" stop-color="#534741" stop-opacity=".2"/>
      <stop offset=".192" stop-color="#c7b299" stop-opacity=".05"/>
      <stop offset=".808" stop-color="#c7b299" stop-opacity=".05"/>
      <stop offset="1" stop-color="#c7b299" stop-opacity="0"/>
    </linearGradient>
  </defs>
  <g>
    <path class="st9" d="M361.284,13.22V3.576c0-1.974,1.602-3.576,3.576-3.576h42.477c1.974,0,3.576,1.602,3.576,3.576v9.644h-49.629,0Z"/>
    <g>
      <g>
        <path class="st6" d="M379.383,4.994c.306,0,.565.04.78.121.214.081.41.195.589.344l-.495.597c-.117-.097-.246-.173-.388-.229s-.296-.085-.462-.085c-.179,0-.342.051-.489.152s-.266.262-.354.48-.133.502-.133.851c0,.513.093.886.279,1.118.186.233.424.35.715.35.213,0,.391-.04.532-.12s.271-.167.391-.262l.459.585c-.16.158-.357.293-.591.406-.234.112-.516.169-.847.169-.386,0-.728-.086-1.025-.257-.299-.171-.533-.424-.702-.757s-.254-.744-.254-1.232c0-.476.088-.88.264-1.212.175-.333.413-.585.715-.759.302-.173.641-.26,1.016-.26h0Z"/>
        <path class="st6" d="M384.392,6.099l-1.089,3.268c-.144.433-.36.762-.65.987-.291.226-.684.354-1.181.382l-.11-.687c.216-.026.39-.066.521-.119.133-.054.239-.126.32-.218.081-.091.151-.206.211-.346h-.333l-1.037-3.268h1.028l.634,2.646.689-2.646h.997,0Z"/>
        <path class="st6" d="M385.027,9.366v-.652h.431v-1.969h-.431v-.646h1.172l.179.735c.117-.281.266-.49.447-.628s.403-.206.666-.206c.111,0,.21.009.296.026s.167.041.243.072l-.182,1.366h-.609v-.604c-.185.033-.347.133-.486.3-.14.168-.247.373-.323.617v.936h.646v.652h-2.049,0Z"/>
        <path class="st6" d="M390.685,6.099v2.603h.831v.665h-2.729v-.665h.926v-1.938h-.896v-.664h1.868ZM390.097,4.388c.168,0,.306.053.412.157.107.104.16.234.16.391s-.053.286-.16.393c-.106.105-.244.158-.412.158-.17,0-.309-.053-.417-.158-.107-.106-.161-.236-.161-.393s.054-.286.161-.391c.108-.104.247-.157.417-.157Z"/>
        <path class="st6" d="M394.084,4.8v3.539c0,.131.037.225.112.281.074.057.178.085.309.085.084,0,.165-.01.243-.029s.151-.043.219-.069l.233.649c-.11.057-.244.107-.399.15-.156.043-.338.064-.545.064-.394,0-.683-.113-.867-.34s-.277-.531-.277-.912v-2.754h-.963v-.665h1.936,0Z"/>
        <path class="st6" d="M397.777,4.8v3.539c0,.131.037.225.112.281.074.057.178.085.309.085.084,0,.165-.01.243-.029s.151-.043.219-.069l.233.649c-.11.057-.244.107-.399.15-.156.043-.338.064-.545.064-.394,0-.683-.113-.867-.34s-.277-.531-.277-.912v-2.754h-.963v-.665h1.936,0Z"/>
        <path class="st6" d="M401.761,6.099v2.603h.831v.665h-2.729v-.665h.926v-1.938h-.896v-.664h1.868ZM401.173,4.388c.168,0,.306.053.412.157.107.104.16.234.16.391s-.053.286-.16.393c-.106.105-.244.158-.412.158-.17,0-.309-.053-.417-.158-.107-.106-.161-.236-.161-.393s.054-.286.161-.391c.108-.104.247-.157.417-.157Z"/>
        <path class="st6" d="M405.189,8.705c.134,0,.259-.026.377-.079.118-.052.235-.119.353-.201l.434.615c-.144.123-.318.226-.524.308s-.437.123-.691.123c-.351,0-.652-.072-.904-.217s-.446-.346-.581-.604c-.136-.257-.203-.556-.203-.896s.069-.644.207-.909c.139-.266.336-.475.591-.626.256-.152.559-.228.909-.228.248,0,.47.034.663.103.194.069.372.171.534.307l-.422.584c-.11-.077-.228-.138-.351-.182-.123-.043-.251-.064-.385-.064-.219,0-.396.078-.53.232-.135.155-.202.416-.202.783,0,.24.032.43.096.567.063.139.15.237.26.296s.233.088.371.088c0,0-.002,0-.002,0Z"/>
      </g>
      <path class="st5" d="M365.863,2.767c-.844,0-1.529.685-1.529,1.529v5.776c0,.844.685,1.529,1.529,1.529h1.666v-4.916h-2.006v-1.37h3.902v3.241l2.324-3.241h2.104l-2.434,3.205,2.331,3.079c.811-.038,1.456-.707,1.456-1.527v-5.776c0-.844-.685-1.529-1.529-1.529h-7.814ZM371.599,11.601l-2.173-2.995v2.995h2.173Z"/>
    </g>
  </g>
  <path class="st7" d="M32.496,125.126v20.367c0,6.425,1.503,7.928,7.928,7.928h293.725c6.425,0,7.928-1.503,7.928-7.928v-20.367h80.645c6.425,0,7.928-1.503,7.928-7.928V21.147c0-6.425-1.503-7.928-7.928-7.928H7.928c-6.425,0-7.928,1.503-7.928,7.928v96.051c0,6.425,1.503,7.928,7.928,7.928h24.569-.001Z"/>
  <g>
    <line class="st2" x1="401.124" y1="41.205" x2="401.124" y2="69.19"/>
    <line class="st2" x1="371.524" y1="41.205" x2="371.524" y2="69.19"/>
    <line class="st2" x1="341.924" y1="41.205" x2="341.924" y2="69.19"/>
    <line class="st2" x1="312.324" y1="41.205" x2="312.324" y2="69.19"/>
    <line class="st2" x1="282.724" y1="41.205" x2="282.724" y2="69.19"/>
    <line class="st2" x1="253.124" y1="41.205" x2="253.124" y2="69.19"/>
    <line class="st2" x1="223.524" y1="41.205" x2="223.524" y2="69.19"/>
    <line class="st2" x1="193.924" y1="41.205" x2="193.924" y2="69.19"/>
    <line class="st2" x1="164.324" y1="41.205" x2="164.324" y2="69.19"/>
    <line class="st2" x1="134.724" y1="41.205" x2="134.724" y2="69.19"/>
    <line class="st2" x1="105.124" y1="41.205" x2="105.124" y2="69.19"/>
    <line class="st2" x1="75.524" y1="41.205" x2="75.524" y2="69.19"/>
    <line class="st2" x1="45.924" y1="41.205" x2="45.924" y2="69.19"/>
  </g>
  <g>
    <line class="st2" x1="384.8" y1="13.22" x2="384.8" y2="41.205"/>
    <line class="st2" x1="355.2" y1="13.22" x2="355.2" y2="41.205"/>
    <line class="st2" x1="325.6" y1="13.22" x2="325.6" y2="41.205"/>
    <line class="st2" x1="296" y1="13.22" x2="296" y2="41.205"/>
    <line class="st2" x1="266.4" y1="13.22" x2="266.4" y2="41.205"/>
    <line class="st2" x1="236.8" y1="13.22" x2="236.8" y2="41.205"/>
    <line class="st2" x1="207.2" y1="13.22" x2="207.2" y2="41.205"/>
    <line class="st2" x1="177.6" y1="13.22" x2="177.6" y2="41.205"/>
    <line class="st2" x1="148" y1="13.22" x2="148" y2="41.205"/>
    <line class="st2" x1="118.4" y1="13.22" x2="118.4" y2="41.205"/>
    <line class="st2" x1="88.8" y1="13.22" x2="88.8" y2="41.205"/>
    <line class="st2" x1="59.2" y1="13.22" x2="59.2" y2="41.205"/>
    <line class="st2" x1="29.6" y1="13.22" x2="29.6" y2="41.205"/>
  </g>
  <g>
    <line class="st2" x1="379.532" y1="69.19" x2="379.532" y2="97.175"/>
    <line class="st2" x1="349.932" y1="69.19" x2="349.932" y2="97.175"/>
    <line class="st2" x1="320.332" y1="69.19" x2="320.332" y2="97.175"/>
    <line class="st2" x1="290.732" y1="69.19" x2="290.732" y2="97.175"/>
    <line class="st2" x1="261.132" y1="69.19" x2="261.132" y2="97.175"/>
    <line class="st2" x1="231.532" y1="69.19" x2="231.532" y2="97.175"/>
    <line class="st2" x1="201.932" y1="69.19" x2="201.932" y2="97.175"/>
    <line class="st2" x1="172.332" y1="69.19" x2="172.332" y2="97.175"/>
    <line class="st2" x1="142.732" y1="69.19" x2="142.732" y2="97.175"/>
    <line class="st2" x1="113.132" y1="69.19" x2="113.132" y2="97.175"/>
    <line class="st2" x1="83.532" y1="69.19" x2="83.532" y2="97.175"/>
    <line class="st2" x1="53.932" y1="69.19" x2="53.932" y2="97.175"/>
  </g>
  <g>
    <line class="st2" x1="364.886" y1="97.175" x2="364.886" y2="125.16"/>
    <line class="st2" x1="335.286" y1="97.175" x2="335.286" y2="125.16"/>
    <line class="st2" x1="305.686" y1="97.175" x2="305.686" y2="125.16"/>
    <line class="st2" x1="276.086" y1="97.175" x2="276.086" y2="125.16"/>
    <line class="st2" x1="246.486" y1="97.175" x2="246.486" y2="125.16"/>
    <line class="st2" x1="216.886" y1="97.175" x2="216.886" y2="125.16"/>
    <line class="st2" x1="187.286" y1="97.175" x2="187.286" y2="125.16"/>
    <line class="st2" x1="157.686" y1="97.175" x2="157.686" y2="125.16"/>
    <line class="st2" x1="128.086" y1="97.175" x2="128.086" y2="125.16"/>
    <line class="st2" x1="98.486" y1="97.175" x2="98.486" y2="125.16"/>
    <line class="st2" x1="68.886" y1="97.175" x2="68.886" y2="125.16"/>
    <line class="st2" x1="39.286" y1="97.175" x2="39.286" y2="125.16"/>
  </g>
  <g>
    <line class="st2" x1="128.086" y1="125.126" x2="128.086" y2="153.421"/>
    <line class="st2" x1="91.696" y1="125.126" x2="91.696" y2="153.421"/>
    <line class="st2" x1="62.096" y1="125.126" x2="62.096" y2="153.421"/>
    <line class="st2" x1="276.086" y1="153.421" x2="276.086" y2="125.126"/>
    <line class="st2" x1="312.477" y1="153.421" x2="312.477" y2="125.126"/>
  </g>
  <line class="st2" y1="41.205" x2="430.649" y2="41.205"/>
  <polyline class="st2" points="0 69.19 409.132 69.19 409.132 97.175"/>
  <line class="st2" y1="97.175" x2="430.649" y2="97.175"/>
  <line class="st2" x1="32.496" y1="125.126" x2="342.077" y2="125.126"/>
  <path class="st10" d="M52.949,59.897v4.308h-.529v-2.211c0-.255.004-.505.012-.751s.021-.464.037-.652l-1.957,3.614h-.689v-4.308h.529v2.199c0,.266-.004.527-.012.788-.008.26-.018.459-.029.599l1.928-3.586s.71,0,.71,0ZM51.361,58.814c-.181,0-.355-.027-.523-.082s-.309-.143-.423-.263c-.113-.12-.181-.278-.203-.476l.406-.099c.065.184.157.311.275.382s.273.106.468.106.356-.035.486-.106.228-.198.293-.382l.402.099c-.022.197-.092.355-.209.476s-.262.208-.433.263-.351.082-.54.082h0Z"/>
  <g>
    <path class="st10" d="M35.049,22.318c.145,0,.265.047.359.141.094.095.142.209.142.343,0,.14-.047.258-.142.355-.094.097-.214.146-.359.146-.14,0-.255-.049-.347-.146-.092-.098-.137-.216-.137-.355,0-.134.045-.248.137-.343.092-.094.207-.141.347-.141ZM35.332,17.584l-.045,3.844h-.492l-.053-3.844h.591,0Z"/>
    <path class="st10" d="M36.764,35.781v.439h-3.13v-.439h1.395v-4.611l-1.333.805-.226-.374,1.637-1.017h.443v5.197h1.214Z"/>
  </g>
  <path class="st10" d="M4.268,34.271c.008.361.073.657.195.889.122.23.283.401.482.511.199.109.417.164.652.164.227,0,.429-.033.605-.099s.361-.165.556-.3l.267.382c-.2.153-.424.272-.675.357-.25.084-.494.127-.732.127-.397,0-.737-.093-1.02-.279s-.5-.446-.65-.781-.226-.726-.226-1.172c0-.438.077-.824.229-1.16.153-.337.366-.6.638-.79s.588-.285.95-.285c.522,0,.931.187,1.227.56.295.374.443.882.443,1.524,0,.074,0,.141-.004.199s-.005.109-.008.153c0,0-2.929,0-2.929,0ZM5.552,32.31c-.347,0-.639.123-.876.369-.236.246-.37.624-.4,1.133h2.449c-.011-.506-.125-.883-.34-1.131-.216-.247-.494-.371-.833-.371h0ZM4.735,30.875c-.112,0-.205-.035-.277-.104-.073-.07-.109-.158-.109-.265,0-.112.036-.204.109-.275.072-.071.165-.106.277-.106.104,0,.192.035.265.106s.109.163.109.275c0,.106-.037.194-.109.265-.072.069-.161.104-.265.104ZM6.364,30.875c-.107,0-.196-.035-.267-.104-.071-.07-.107-.158-.107-.265,0-.112.036-.204.107-.275s.16-.106.267-.106c.112,0,.204.035.277.106.072.071.108.163.108.275,0,.106-.036.194-.108.265-.073.069-.165.104-.277.104Z"/>
  <g>
    <path class="st10" d="M63.75,19.253l-.123-2.084h.755l-.119,2.084s-.513,0-.513,0ZM65.064,19.253l-.119-2.084h.751l-.124,2.084s-.508,0-.508,0Z"/>
    <path class="st10" d="M64.395,30.506c.333,0,.621.066.863.201.242.134.43.318.562.554.132.235.198.504.198.808,0,.269-.046.53-.139.786-.094.256-.242.523-.447.804s-.473.591-.803.932c-.329.341-.732.729-1.208,1.163h2.729l-.07.468h-3.232v-.456c.44-.421.813-.789,1.12-1.104s.558-.59.755-.826.35-.452.459-.646.186-.38.229-.558c.042-.178.063-.366.063-.566,0-.345-.097-.615-.29-.812-.192-.196-.457-.295-.793-.295-.299,0-.539.049-.723.146-.183.097-.369.252-.558.466l-.378-.3c.228-.268.472-.462.732-.582.262-.121.571-.181.93-.181v-.002s0,0,.001,0Z"/>
  </g>
  <g>
    <path class="st10" d="M94.221,17.584v5.637h-.841l-.898-4.948h-.033s-.002.055.002.164.009.253.014.431c.005.179.011.375.017.591.005.217.008.434.008.652v3.11h-.394v-5.637h.841l.898,4.976h.033c.008.009.008-.071,0-.239-.008-.169-.018-.396-.029-.686-.011-.288-.017-.607-.017-.958v-3.093s.399,0,.399,0ZM95.468,17.469c.394,0,.672.161.835.484.163.322.244.763.244,1.32,0,.354-.034.665-.103.936s-.181.482-.338.634-.37.228-.638.228c-.391,0-.67-.163-.837-.49-.167-.326-.25-.762-.25-1.307,0-.536.084-.971.252-1.305.168-.333.446-.5.834-.5,0,0,0,0,0,0ZM96.481,22.74v.48h-2.015v-.48h2.015ZM95.468,17.842c-.183,0-.309.122-.377.365s-.103.599-.103,1.066c0,.471.034.826.103,1.067.068.24.194.36.377.36.191,0,.32-.12.386-.36.066-.241.099-.597.099-1.067s-.035-.823-.104-1.066c-.07-.243-.196-.365-.38-.365h-.001Z"/>
    <path class="st10" d="M93.995,30.506c.339,0,.634.063.884.19s.444.297.583.509.207.445.207.699c0,.225-.051.431-.154.618s-.236.341-.4.461-.341.195-.529.226c.208.011.408.071.601.181s.352.264.476.464c.124.199.187.442.187.73,0,.328-.08.622-.24.882-.16.26-.382.464-.667.613-.285.148-.611.224-.98.224-.285,0-.579-.057-.884-.168-.305-.112-.562-.299-.773-.559l.386-.287c.159.188.353.33.583.425s.461.142.693.142c.427,0,.757-.112.991-.337.234-.224.351-.526.351-.906,0-.29-.055-.518-.164-.684-.109-.165-.257-.282-.443-.353-.186-.069-.394-.104-.624-.104h-.459l.066-.438h.32c.188,0,.37-.038.543-.113s.316-.191.429-.349.168-.356.168-.597c0-.342-.112-.601-.336-.775-.225-.176-.493-.263-.804-.263-.249,0-.465.042-.648.127-.183.085-.372.219-.566.402l-.295-.345c.235-.219.48-.376.734-.472s.51-.144.767-.144h-.003,0Z"/>
  </g>
  <g>
    <path class="st10" d="M123.85,21.94c.178,0,.325.06.441.179s.174.259.174.42c0,.085-.007.169-.021.253-.014.083-.043.173-.09.269l-.693,1.596h-.562l.39-1.612c-.159-.117-.238-.284-.238-.5,0-.164.058-.306.174-.425s.258-.179.425-.179h0ZM123.85,19.098c.178,0,.325.058.441.172.116.115.174.257.174.427,0,.167-.058.311-.174.431s-.263.181-.441.181c-.169,0-.312-.061-.427-.181s-.172-.264-.172-.431c0-.17.058-.312.172-.427.115-.114.257-.172.427-.172Z"/>
    <path class="st10" d="M124.896,32.696v1.67h.779v.427h-.779v1.428h-.493v-1.428h-2.347v-.395l1.682-3.893.418.196-1.551,3.664h1.801l.07-1.67h.42Z"/>
  </g>
  <g>
    <path class="st10" d="M155.333,17.44l.369.287-4.205,5.637-.357-.287s4.193-5.637,4.193-5.637ZM152.412,17.506c.26,0,.479.062.659.188s.316.289.41.49.142.415.142.642c0,.225-.047.439-.142.645s-.231.373-.41.503-.399.194-.659.194c-.257,0-.477-.064-.66-.194-.184-.13-.323-.298-.418-.503-.096-.205-.144-.42-.144-.645,0-.232.048-.449.144-.649.096-.201.235-.363.418-.486s.403-.185.66-.185ZM152.412,17.957c-.169,0-.32.069-.453.209s-.199.359-.199.66c0,.29.064.514.191.669.127.156.281.234.461.234.17,0,.319-.07.447-.212.128-.141.193-.371.193-.691,0-.316-.064-.541-.193-.673-.128-.131-.277-.196-.447-.196h0ZM154.538,20.607c.26,0,.479.062.658.188s.316.289.41.49c.095.201.142.416.142.646,0,.224-.047.438-.142.642-.094.204-.231.371-.41.501s-.398.194-.658.194c-.257,0-.478-.064-.661-.194s-.323-.297-.418-.501-.144-.418-.144-.642c0-.235.048-.454.144-.654.096-.201.235-.363.418-.486s.403-.185.661-.185h0ZM154.538,21.059c-.17,0-.321.066-.454.201-.133.134-.199.358-.199.673,0,.287.063.509.19.664.127.156.281.234.462.234.169,0,.318-.07.447-.212.129-.141.193-.369.193-.687s-.064-.543-.193-.675c-.128-.133-.277-.199-.447-.199h.001,0Z"/>
    <path class="st10" d="M154.927,30.584l-.09.435h-2.277v1.948c.183-.101.353-.17.509-.207s.325-.056.508-.056c.468,0,.839.151,1.114.454.275.302.412.734.412,1.298,0,.372-.074.697-.222.975-.147.277-.357.492-.627.645-.271.151-.592.228-.964.228-.32,0-.605-.056-.855-.166-.25-.111-.486-.267-.708-.466l.328-.332c.184.175.377.305.581.39.204.084.434.127.691.127.394,0,.699-.119.915-.357.216-.237.324-.596.324-1.074,0-.326-.049-.581-.147-.766s-.23-.315-.396-.394-.348-.117-.548-.117c-.186,0-.344.017-.476.05-.131.032-.286.079-.464.139h-.459v-2.752h2.852v-.002h-.001Z"/>
  </g>
  <g>
    <path class="st10" d="M182.451,19.696c0-.17.058-.312.172-.427.115-.114.257-.172.427-.172.178,0,.325.058.441.172.116.115.174.257.174.427,0,.167-.058.311-.174.431s-.263.181-.441.181c-.169,0-.312-.061-.427-.181s-.172-.264-.172-.431ZM182.451,22.691c0-.161.058-.303.172-.423s.257-.181.427-.181c.178,0,.325.061.441.181s.174.262.174.423c0,.172-.058.317-.174.435s-.263.177-.441.177c-.169,0-.312-.059-.427-.177-.115-.117-.172-.263-.172-.435Z"/>
    <path class="st10" d="M183.317,30.506c.208,0,.401.027.579.082s.346.134.504.237l-.205.374c-.276-.162-.577-.242-.902-.242-.314,0-.58.103-.796.308s-.381.492-.495.861c-.113.369-.174.8-.183,1.292.184-.298.389-.512.618-.642s.493-.195.794-.195c.29,0,.556.062.798.185.242.124.437.314.584.573.148.258.222.588.222.99,0,.427-.08.786-.238,1.079-.159.293-.368.515-.628.667-.26.151-.54.228-.841.228-.443,0-.797-.111-1.061-.333-.264-.221-.454-.54-.57-.955-.116-.416-.174-.914-.174-1.494,0-.62.079-1.155.236-1.605s.384-.798.681-1.042c.296-.245.656-.367,1.077-.367h0ZM183.194,33.049c-.306,0-.574.086-.804.257-.229.171-.416.391-.558.658.014.656.123,1.135.328,1.437.205.301.525.451.96.451.391,0,.686-.134.884-.4.198-.267.297-.641.297-1.122,0-.325-.047-.581-.14-.768-.093-.186-.223-.317-.39-.396-.167-.078-.36-.117-.579-.117h.002,0Z"/>
  </g>
  <g>
    <path class="st10" d="M211.112,24.045l-.422-.185,3.532-7.262.414.21-3.524,7.236h0Z"/>
    <path class="st10" d="M212.01,36.282l-.468-.14,2.224-5.107h-2.695v-.451h3.209v.422l-2.27,5.276h0Z"/>
  </g>
  <g>
    <path class="st10" d="M241.43,20.349c0,.604.069,1.122.209,1.553s.344.814.613,1.151c.27.336.6.665.991.988l-.246.287c-.446-.361-.827-.727-1.143-1.098-.316-.37-.558-.786-.725-1.247-.166-.461-.25-1.006-.25-1.635s.084-1.178.25-1.639c.167-.461.408-.877.725-1.247.315-.371.696-.735,1.143-1.094l.246.287c-.301.252-.564.501-.792.747-.227.246-.416.509-.568.789-.151.281-.265.596-.34.946s-.113.753-.113,1.21c0,0,0,.002,0,.002Z"/>
    <path class="st10" d="M243.9,31.921c0,.279-.089.521-.267.725-.178.203-.426.392-.742.563.363.14.661.336.892.589s.347.559.347.917c0,.312-.078.587-.235.826-.157.24-.377.427-.658.561-.282.134-.61.201-.985.201-.386,0-.717-.069-.994-.207-.278-.139-.491-.326-.639-.564s-.222-.508-.222-.809c0-.355.106-.652.318-.89s.491-.438.839-.6c-.301-.131-.53-.299-.689-.504-.158-.205-.237-.465-.237-.78,0-.262.054-.485.162-.668.107-.184.246-.333.414-.447.168-.115.347-.198.535-.25.188-.053.362-.078.521-.078.186,0,.374.025.565.078.191.052.369.134.531.246.163.111.294.258.395.438.1.181.149.398.149.652h0ZM243.576,34.727c0-.273-.072-.488-.217-.645-.146-.156-.342-.285-.589-.388-.248-.103-.526-.206-.835-.31-.17.071-.33.163-.48.274-.15.112-.271.256-.365.431-.093.176-.139.395-.139.657,0,.347.107.618.323.812.217.194.536.292.96.292.427,0,.758-.106.991-.318s.351-.48.351-.806h0ZM241.143,31.962c0,.241.056.426.168.556s.271.234.477.312c.205.077.444.16.718.248.284-.153.502-.311.652-.472.15-.162.226-.386.226-.673,0-.31-.099-.553-.296-.73-.196-.178-.473-.267-.828-.267-.351,0-.624.091-.821.272-.196.182-.295.433-.295.753h-.001,0Z"/>
  </g>
  <g>
    <path class="st10" d="M272.697,20.349c0-.457-.038-.86-.113-1.21-.075-.351-.188-.665-.341-.946-.151-.28-.341-.543-.567-.789-.228-.246-.491-.495-.792-.747l.246-.287c.448.358.83.723,1.145,1.094.314.37.555.786.722,1.247s.251,1.007.251,1.639-.084,1.174-.251,1.635-.407.877-.722,1.247c-.314.371-.696.736-1.145,1.098l-.246-.287c.391-.323.721-.652.99-.988.27-.337.475-.721.613-1.151.14-.431.21-.948.21-1.553,0,0,0-.002,0-.002Z"/>
    <path class="st10" d="M271.761,30.518c.591,0,1.033.207,1.327.622.294.414.44.981.44,1.7,0,.577-.055,1.06-.164,1.446s-.279.707-.511.96c-.23.253-.528.466-.892.638-.364.173-.801.335-1.309.488l-.128-.41c.539-.156.989-.339,1.35-.55.361-.21.634-.478.816-.802.184-.324.279-.731.288-1.221-.159.213-.352.388-.577.523-.226.135-.486.203-.781.203-.476,0-.864-.157-1.165-.472s-.451-.757-.451-1.325c0-.402.079-.737.237-1.004.159-.267.371-.466.637-.599.265-.133.559-.199.882-.199v.002h0ZM270.542,32.36c0,.454.098.786.294.996.195.211.472.316.83.316.287,0,.535-.077.745-.231.209-.155.404-.365.584-.63-.008-.46-.061-.823-.157-1.092-.098-.268-.235-.46-.415-.576-.179-.116-.398-.175-.658-.175-.407,0-.713.119-.917.357s-.306.582-.306,1.034h0Z"/>
  </g>
  <g>
    <path class="st10" d="M302.982,19.68v.472h-3.036v-.472h3.036ZM302.982,21.185v.476h-3.036v-.476h3.036Z"/>
    <path class="st10" d="M301.463,30.506c.588,0,1.033.249,1.336.746.302.498.453,1.215.453,2.15s-.151,1.655-.453,2.153c-.303.498-.748.747-1.336.747s-1.029-.249-1.333-.747-.455-1.216-.455-2.153.151-1.652.455-2.15c.304-.497.748-.746,1.333-.746ZM301.463,30.948c-.363,0-.655.192-.876.577-.22.384-.33,1.01-.33,1.877,0,.656.061,1.177.181,1.562l1.821-3.626c-.191-.261-.456-.391-.796-.391h0ZM302.674,33.402c0-.706-.067-1.253-.201-1.642l-1.821,3.668c.193.284.465.427.812.427.369,0,.663-.194.883-.583.219-.388.328-1.012.328-1.87h-.001Z"/>
  </g>
  <g>
    <path class="st10" d="M331.069,17.506c.311,0,.582.06.813.178.231.119.409.273.536.462.125.188.188.387.188.595,0,.26-.049.472-.146.636-.1.164-.221.304-.365.419-.146.115-.291.228-.438.338-.146.111-.269.242-.367.393-.098.15-.147.345-.147.582v.32h-.55v-.361c0-.26.05-.477.15-.65s.223-.323.371-.449c.147-.125.295-.244.442-.354s.271-.232.372-.365c.1-.133.149-.295.149-.486,0-.26-.103-.46-.306-.601-.204-.141-.456-.212-.758-.212-.196,0-.401.05-.615.148-.213.098-.408.258-.586.479l-.395-.278c.241-.282.501-.484.779-.607.279-.123.569-.185.871-.185l.002-.002h0ZM330.887,22.318c.146,0,.266.047.359.141.094.095.142.209.142.343,0,.14-.048.258-.142.355s-.214.146-.359.146c-.137,0-.251-.049-.344-.146-.094-.098-.14-.216-.14-.355,0-.134.046-.248.14-.343.093-.094.207-.141.344-.141Z"/>
    <path class="st10" d="M331.31,31.826v1.621h1.601v.455h-1.601v1.604h-.513v-1.604h-1.58v-.455h1.58v-1.621s.513,0,.513,0Z"/>
  </g>
  <g>
    <path class="st10" d="M358.613,24.697v-.479h4.103v.479h-4.103Z"/>
    <path class="st10" d="M359.06,33.891v-.477h3.208v.477h-3.208Z"/>
  </g>
  <path class="st10" d="M376.432,59.897v1.37h.562c.389,0,.728.047,1.018.14s.517.245.679.455c.163.211.244.493.244.845,0,.381-.087.68-.263.898-.175.219-.411.374-.709.465-.299.09-.635.135-1.01.135h-1.029v-3.894h-1.079v-.414h1.588-.001,0ZM377.096,61.715h-.664v2.039h.647c.238,0,.455-.027.65-.08.196-.053.352-.154.468-.304s.175-.367.175-.654c0-.372-.115-.632-.345-.779s-.54-.222-.932-.222h.001Z"/>
  <path class="st10" d="M59.127,86.069l.533.082v2.101c.123-.153.253-.267.39-.339s.276-.108.418-.108c.279,0,.5.093.662.279.163.186.28.445.351.779.071.333.106.722.106,1.165s-.047.837-.142,1.173c-.094.337-.23.6-.408.788s-.39.283-.636.283c-.123,0-.249-.04-.377-.119s-.25-.201-.365-.365v2.035l-.533.082v-2.121c-.115.167-.241.29-.377.369s-.265.119-.386.119c-.246,0-.456-.095-.629-.283-.174-.188-.307-.451-.398-.788-.092-.336-.138-.728-.138-1.173s.037-.832.111-1.165c.074-.334.195-.594.363-.779.168-.187.393-.279.675-.279.139,0,.273.032.402.099.128.065.254.175.377.328v-2.162h.001ZM58.438,88.248c-.208,0-.368.137-.48.412-.112.274-.168.73-.168,1.368s.056,1.099.168,1.376c.112.278.272.417.48.417.137,0,.254-.04.353-.119s.21-.197.336-.353v-2.676c-.126-.139-.236-.245-.33-.317-.095-.072-.214-.108-.359-.108h0ZM60.383,88.248c-.147,0-.275.036-.381.11-.107.074-.22.184-.341.328v2.663c.109.15.213.267.31.349s.212.123.347.123c.219,0,.389-.142.511-.425.122-.283.183-.739.183-1.368,0-.638-.05-1.094-.15-1.368-.1-.275-.259-.412-.478-.412h0Z"/>
  <g>
    <path class="st10" d="M43.866,108.102v-7.599h1.916v.48h-1.436v6.646h1.436v.472h-1.916Z"/>
    <path class="st10" d="M45.63,113.504v7.599h-1.916v-.468h1.436v-6.65h-1.436v-.48h1.916Z"/>
  </g>
  <path class="st10" d="M72.395,120.176l1.021-1.843c-.268-.123-.464-.286-.589-.49s-.187-.442-.187-.716c0-.432.147-.75.441-.953.294-.204.678-.307,1.151-.307h1.542v4.309h-.509v-1.719h-1.309l-.956,1.719h-.607.002,0ZM74.184,117.98h1.083v-1.637h-1.05c-.323,0-.574.062-.752.185-.179.123-.269.329-.269.619,0,.302.077.515.232.642.154.128.407.191.757.191h-.001Z"/>
  <path class="st10" d="M105.409,115.867v4.309h-.509v-1.892c-.167.155-.372.28-.615.373s-.502.14-.775.14c-.41,0-.719-.109-.925-.326-.207-.217-.311-.524-.311-.921v-1.683h.509v1.625c0,.309.064.533.193.671.128.138.333.207.615.207.227,0,.466-.05.718-.147.252-.099.448-.234.591-.406v-1.949h.509,0Z"/>
  <path class="st10" d="M133.832,119.789c.229,0,.442-.035.638-.105.196-.072.373-.163.532-.275l.267.345c-.189.159-.415.282-.677.371s-.509.134-.738.134c-.626,0-1.109-.201-1.448-.604s-.509-.941-.509-1.616c0-.427.076-.81.228-1.149.151-.339.373-.607.665-.804.291-.196.647-.296,1.068-.296.528,0,.994.164,1.399.488l-.271.365c-.391-.268-.775-.402-1.153-.402-.396,0-.724.151-.982.452-.259.301-.388.749-.388,1.346,0,.602.129,1.044.388,1.327.258.283.586.424.982.424h0Z"/>
  <g>
    <path class="st10" d="M161.524,148.16v-4.308h.427l.041.628c.169-.225.393-.398.671-.521.277-.123.537-.185.777-.185.44,0,.754.112.941.337s.281.534.281.931v3.118h-.509v-2.572c0-.328-.018-.595-.053-.8-.036-.205-.112-.354-.23-.449s-.302-.142-.554-.142c-.191,0-.372.042-.54.125-.168.084-.316.187-.443.308-.127.122-.228.24-.301.355v3.175h-.509.001,0Z"/>
    <path class="st10" d="M168.022,143.774c.591,0,1.033.202,1.327.605.294.403.441.945.441,1.627,0,.427-.067.808-.201,1.145-.134.336-.333.603-.597.798s-.592.293-.983.293c-.394,0-.723-.094-.986-.28-.264-.188-.462-.449-.595-.784s-.199-.723-.199-1.163.067-.828.201-1.165c.134-.336.334-.6.601-.79.267-.189.597-.285.991-.285h0ZM168.022,144.222c-.405,0-.711.146-.921.439-.209.292-.314.744-.314,1.354,0,1.185.408,1.776,1.223,1.776s1.223-.595,1.223-1.784c0-.604-.102-1.054-.306-1.346-.204-.293-.505-.439-.905-.439h0Z"/>
    <path class="st10" d="M171.371,148.16v-4.308h.427l.041.628c.169-.225.393-.398.671-.521.277-.123.537-.185.777-.185.44,0,.754.112.941.337s.281.534.281.931v3.118h-.509v-2.572c0-.328-.018-.595-.053-.8-.036-.205-.112-.354-.23-.449s-.302-.142-.554-.142c-.191,0-.372.042-.54.125-.168.084-.316.187-.443.308-.127.122-.228.24-.301.355v3.175h-.509.001,0Z"/>
    <path class="st10" d="M176.252,146.158v-.476h3.208v.476h-3.208Z"/>
    <path class="st10" d="M181.725,144.447c.164-.216.352-.382.564-.498s.447-.175.704-.175c.388,0,.702.094.939.279.238.187.411.446.519.781s.162.726.162,1.172c0,.432-.065.816-.195,1.152-.13.337-.321.602-.572.794-.252.193-.562.289-.932.289-.514,0-.916-.182-1.206-.545l-.049.463h-.443v-6.051l.509-.07v2.408h0ZM182.804,147.8c.399,0,.705-.15.917-.449.212-.3.318-.751.318-1.353,0-.571-.094-1.013-.281-1.323-.188-.31-.467-.465-.839-.465-.268,0-.503.08-.706.239-.203.16-.365.331-.488.511v2.232c.123.183.28.33.47.44.19.111.393.167.609.167h0Z"/>
    <path class="st10" d="M186.18,148.16v-.427h.702v-3.45h-.702v-.431h1.091l.094,1.034c.17-.351.373-.624.609-.822.236-.199.556-.298.958-.298.112,0,.212.008.301.024s.183.037.281.062l-.058,1.354h-.492v-.842l.008-.106c-.033-.003-.067-.004-.103-.004-.348,0-.643.118-.886.354-.244.237-.442.611-.595,1.122v2.002h.886v.427h-2.097.003Z"/>
    <path class="st10" d="M191.431,146.212c.008.36.073.657.195.888s.283.401.482.511c.199.109.417.164.652.164.227,0,.429-.032.605-.098.176-.066.361-.166.556-.3l.267.382c-.2.152-.424.271-.675.356-.25.085-.494.127-.732.127-.397,0-.737-.093-1.02-.278-.283-.187-.5-.447-.65-.782s-.226-.726-.226-1.171c0-.438.077-.824.229-1.161.153-.336.366-.6.638-.79.272-.189.588-.285.95-.285.522,0,.931.188,1.227.561s.443.881.443,1.523c0,.074-.001.141-.004.199s-.005.11-.008.154h-2.929ZM192.715,144.251c-.347,0-.639.123-.876.369-.236.246-.37.623-.4,1.132h2.449c-.011-.506-.125-.883-.34-1.13-.216-.248-.494-.371-.833-.371h0Z"/>
    <path class="st10" d="M198.911,147.311c0,.175.03.303.09.383.06.081.153.141.279.179l-.14.373c-.164-.024-.311-.084-.439-.18s-.219-.242-.271-.439c-.307.41-.75.615-1.33.615-.426,0-.762-.12-1.005-.36-.244-.241-.365-.562-.365-.965,0-.438.17-.772.511-1.005.341-.232.836-.349,1.487-.349h.652v-.419c0-.336-.097-.572-.289-.707-.193-.136-.457-.203-.79-.203-.145,0-.309.017-.492.049-.183.033-.387.089-.611.169l-.148-.419c.26-.096.496-.163.708-.201s.417-.058.617-.058c.506,0,.888.124,1.147.372.258.247.388.574.388.982v2.183h.001,0ZM197.2,147.836c.235,0,.456-.057.661-.172s.379-.275.521-.48v-1.23h-.714c-.512,0-.869.09-1.071.269-.203.18-.304.417-.304.712,0,.602.302.902.907.902h0Z"/>
    <path class="st10" d="M201.475,142.039v6.121h-.509v-6.051l.509-.07h0ZM204.375,143.852l-2.097,1.949,2.351,2.358h-.734l-2.334-2.351,2.055-1.957h.759Z"/>
    <path class="st10" d="M207.878,143.852v3.865h1.251v.442h-3.122v-.442h1.362v-3.422h-1.321v-.443h1.83,0ZM207.398,141.904c.131,0,.235.039.312.119.077.079.115.175.115.287,0,.12-.038.221-.115.301-.077.081-.181.121-.312.121-.123,0-.223-.04-.3-.121-.077-.08-.115-.181-.115-.301,0-.112.038-.208.115-.287.077-.08.177-.119.3-.119Z"/>
    <path class="st10" d="M210.754,148.16v-4.308h.427l.041.628c.169-.225.393-.398.671-.521.277-.123.537-.185.777-.185.44,0,.754.112.941.337s.281.534.281.931v3.118h-.509v-2.572c0-.328-.018-.595-.053-.8-.036-.205-.112-.354-.23-.449s-.302-.142-.554-.142c-.191,0-.372.042-.54.125-.168.084-.316.187-.443.308-.127.122-.228.24-.301.355v3.175h-.509.001,0Z"/>
    <path class="st10" d="M219.083,143.463l.188.558c-.194.055-.396.088-.604.099s-.429.017-.664.017c.243.112.425.261.545.445.121.185.181.395.181.63,0,.429-.136.782-.408,1.059-.271.275-.655.414-1.15.414-.161,0-.293-.008-.394-.022-.102-.016-.2-.039-.296-.072-.068.052-.126.121-.174.205-.048.085-.072.174-.072.267,0,.112.045.205.134.279s.246.11.474.11h.796c.276,0,.527.051.753.152s.404.238.537.41.199.366.199.583c0,.418-.176.736-.527.953-.352.218-.838.326-1.458.326-.646,0-1.098-.101-1.354-.304-.257-.202-.386-.524-.386-.968h.468c0,.181.035.329.104.447.07.117.195.206.375.265s.438.088.775.088c.984,0,1.477-.259,1.477-.775,0-.227-.105-.396-.315-.509-.211-.112-.464-.168-.76-.168h-.796c-.344,0-.599-.081-.762-.242-.164-.161-.247-.346-.247-.554,0-.281.156-.526.468-.734-.473-.249-.709-.642-.709-1.178,0-.281.07-.533.209-.755.14-.222.333-.396.583-.524.249-.129.537-.193.865-.193.375-.005.674-.02.896-.043s.412-.057.566-.101.315-.099.482-.164h.001,0ZM217.125,144.173c-.389,0-.673.103-.852.308s-.269.462-.269.771c0,.306.092.562.274.769.184.207.474.311.87.311.331,0,.584-.096.759-.287s.263-.457.263-.796c0-.351-.088-.617-.263-.801-.175-.183-.437-.274-.783-.274h.001Z"/>
    <path class="st10" d="M226.91,147.779c.366,0,.654-.071.863-.212s.313-.326.313-.556c0-.143-.022-.266-.067-.371s-.143-.2-.291-.283c-.149-.083-.378-.162-.688-.236-.309-.076-.576-.161-.802-.254s-.4-.215-.523-.365-.185-.35-.185-.599c0-.238.067-.441.203-.609s.321-.297.558-.386.504-.134.803-.134c.336,0,.63.046.88.136s.46.199.63.328l-.238.378c-.158-.112-.335-.205-.529-.279s-.44-.111-.738-.111c-.38,0-.646.061-.8.181-.153.121-.229.272-.229.456,0,.142.037.259.112.351s.199.172.371.242c.173.069.405.144.697.224.282.073.528.162.739.267.21.104.374.239.492.406.117.166.176.383.176.647,0,.304-.085.547-.256.729s-.391.313-.658.394c-.269.081-.548.121-.837.121-.381,0-.701-.056-.963-.168-.261-.112-.478-.243-.649-.394l.315-.374c.17.143.365.257.587.343s.459.13.714.13v-.002h0Z"/>
    <path class="st10" d="M232.234,143.774c.386,0,.692.094.919.279.228.187.391.446.488.781.099.335.148.726.148,1.172,0,.432-.06.816-.179,1.152-.119.337-.301.602-.546.794-.245.193-.558.289-.938.289-.489,0-.881-.171-1.173-.513v2.076l-.509.069v-6.022h.418l.058.636c.153-.219.341-.393.564-.521.223-.129.473-.193.748-.193h.002ZM232.144,144.21c-.266,0-.499.08-.701.239-.203.16-.365.331-.488.511v2.232c.12.178.276.319.468.427.191.106.398.16.623.16.791,0,1.186-.594,1.186-1.781,0-.571-.087-1.013-.26-1.323-.174-.31-.45-.465-.827-.465h-.001Z"/>
    <path class="st10" d="M238.294,147.311c0,.175.029.303.09.383.061.081.153.141.279.179l-.14.373c-.164-.024-.311-.084-.439-.18-.128-.096-.219-.242-.271-.439-.307.41-.749.615-1.329.615-.427,0-.762-.12-1.005-.36-.244-.241-.365-.562-.365-.965,0-.438.17-.772.511-1.005s.836-.349,1.487-.349h.652v-.419c0-.336-.097-.572-.289-.707-.193-.136-.457-.203-.79-.203-.146,0-.31.017-.492.049-.184.033-.388.089-.611.169l-.148-.419c.261-.096.496-.163.708-.201s.418-.058.617-.058c.507,0,.889.124,1.147.372.258.247.388.574.388.982v2.183h0ZM236.583,147.836c.235,0,.455-.057.66-.172s.379-.275.521-.48v-1.23h-.714c-.512,0-.869.09-1.071.269-.202.18-.304.417-.304.712,0,.602.303.902.907.902h.001Z"/>
    <path class="st10" d="M242.138,147.774c.229,0,.442-.035.638-.106s.373-.162.531-.274l.267.345c-.188.158-.414.282-.677.371s-.509.133-.738.133c-.627,0-1.109-.201-1.448-.603-.34-.402-.509-.941-.509-1.616,0-.427.076-.81.228-1.149.151-.339.373-.607.665-.804.291-.197.647-.296,1.068-.296.527,0,.994.163,1.398.488l-.271.365c-.391-.268-.775-.402-1.152-.402-.396,0-.725.151-.982.452-.259.301-.388.749-.388,1.346,0,.602.129,1.044.388,1.327.258.282.586.424.982.424h0Z"/>
    <path class="st10" d="M245.583,146.212c.009.36.073.657.195.888s.282.401.482.511c.199.109.417.164.651.164.228,0,.43-.032.605-.098.177-.066.361-.166.556-.3l.267.382c-.199.152-.424.271-.675.356-.25.085-.494.127-.731.127-.397,0-.737-.093-1.02-.278-.283-.187-.5-.447-.65-.782s-.226-.726-.226-1.171c0-.438.076-.824.229-1.161.153-.336.365-.6.638-.79.272-.189.589-.285.95-.285.522,0,.931.188,1.227.561.295.373.443.881.443,1.523,0,.074-.002.141-.005.199s-.005.11-.008.154h-2.93.002ZM246.868,144.251c-.347,0-.639.123-.876.369-.236.246-.369.623-.399,1.132h2.449c-.011-.506-.125-.883-.341-1.13-.216-.248-.493-.371-.833-.371h0Z"/>
  </g>
  <path class="st10" d="M164.892,115.867l.316,4.309h-.513l-.201-2.298c-.019-.222-.034-.45-.043-.685-.01-.236-.015-.498-.015-.788h-.033l-.931,3.032h-.615l-1.046-3.032h-.033c.005.222.005.465-.002.729-.007.266-.017.502-.031.711l-.144,2.33h-.513l.308-4.309h.763l1.018,3.028.948-3.028h.767Z"/>
  <path class="st10" d="M194.312,115.867v4.309h-.529v-2.212c0-.255.004-.505.012-.751s.021-.463.037-.652l-1.957,3.615h-.689v-4.309h.529v2.199c0,.266-.004.527-.012.788-.008.26-.018.46-.029.599l1.928-3.586h.71Z"/>
  <path class="st10" d="M224.265,115.867l-.058.46h-1.604v3.849h-.51v-3.849h-1.611v-.46h3.783,0Z"/>
  <path class="st10" d="M251.125,115.867v1.379h.965c.442,0,.789.062,1.04.188.25.126.426.298.526.517.102.219.152.47.152.752,0,.328-.076.602-.228.82-.152.219-.345.382-.579.49-.233.107-.475.162-.724.162h-1.661v-4.309h.509ZM252.069,117.693h-.944v2.031h1.043c.312,0,.569-.072.775-.216.205-.144.308-.408.308-.794,0-.334-.082-.588-.244-.762-.163-.173-.476-.26-.938-.26h0Z"/>
  <path class="st10" d="M282.604,114.042l.254.451c-.12.071-.28.161-.481.271s-.462.225-.781.345c-.22.085-.413.188-.581.31-.168.122-.307.305-.416.546-.109.242-.187.587-.23,1.036.14-.249.33-.451.57-.607.241-.156.516-.234.825-.234.473,0,.849.173,1.126.518s.416.818.416,1.42c0,.691-.163,1.225-.49,1.6-.326.375-.753.562-1.277.562-.314,0-.604-.084-.87-.253-.266-.168-.479-.431-.64-.788-.161-.356-.242-.818-.242-1.385,0-.598.043-1.105.129-1.521s.24-.757.462-1.023.534-.474.939-.621c.309-.113.557-.211.742-.296.187-.085.368-.194.546-.328v-.003h-.001ZM280.376,118.096c0,.541.107.959.322,1.255.214.296.494.443.839.443.213,0,.408-.046.584-.138.177-.092.318-.258.425-.5s.16-.586.16-1.032c0-.552-.091-.94-.272-1.163-.183-.223-.415-.334-.7-.334-.155,0-.316.027-.481.082-.166.055-.324.151-.477.291-.151.139-.284.336-.399.591v.505h-.001Z"/>
  <path class="st10" d="M311.811,115.789c.497,0,.871.197,1.12.59.248.393.373.939.373,1.643,0,.438-.054.824-.16,1.161s-.271.6-.49.79c-.22.189-.501.285-.843.285-.326,0-.593-.092-.803-.275-.209-.184-.366-.43-.472-.738s-.164-.652-.178-1.029h-.6v1.961h-.558v-4.309h.558v1.859h.595c.03-.602.165-1.075.404-1.42s.59-.518,1.053-.518h.001ZM311.811,116.273c-.331,0-.557.146-.675.438-.119.291-.179.73-.179,1.318,0,.348.023.652.071.915s.134.466.257.611.298.218.525.218c.235,0,.416-.072.543-.218.128-.146.215-.349.263-.613s.072-.571.072-.921c0-.588-.065-1.026-.195-1.314-.13-.289-.357-.434-.683-.434h.001Z"/>
  <g>
    <path class="st10" d="M340.75,105.928c.169,0,.311.058.425.173.113.114.17.253.17.414,0,.079-.006.161-.019.244-.012.083-.04.169-.084.257l-.686,1.575h-.55l.386-1.583c-.153-.121-.229-.285-.229-.493,0-.161.056-.3.168-.414.112-.115.252-.173.419-.173h0Z"/>
    <path class="st10" d="M340.082,119.584c0-.186.062-.342.187-.467.125-.126.281-.189.47-.189.194,0,.355.063.482.189.127.125.19.281.19.467,0,.191-.063.352-.19.48s-.288.193-.482.193c-.188,0-.345-.064-.47-.193-.124-.129-.187-.289-.187-.48Z"/>
  </g>
  <path class="st10" d="M87.652,87.883v1.423h.357c.55,0,.989.109,1.317.326.328.218.492.575.492,1.073,0,.353-.077.638-.232.855-.154.218-.371.377-.648.478-.278.102-.6.152-.966.152h-.845v-4.308h.525ZM88.025,89.745h-.373v1.985h.353c.257,0,.478-.028.661-.086s.324-.16.422-.308c.099-.147.148-.357.148-.628,0-.353-.098-.602-.293-.746-.195-.146-.501-.218-.917-.218h0ZM90.86,87.883v4.308h-.538v-4.308h.538Z"/>
  <path class="st10" d="M118.496,87.805c.53,0,.947.097,1.251.291s.455.469.455.825c0,.216-.056.405-.168.567-.112.163-.344.288-.693.376.375.032.65.134.829.304.178.169.267.422.267.759,0,.295-.081.536-.242.722-.162.187-.376.323-.645.41-.268.088-.561.132-.878.132h-1.547v-4.246c.203-.038.421-.071.654-.099.234-.027.473-.041.717-.041h0ZM118.511,88.272c-.183,0-.338.005-.463.014-.126.01-.265.024-.415.044v1.333h.993c.307,0,.553-.049.74-.146.188-.098.281-.287.281-.568,0-.252-.094-.428-.281-.527s-.473-.149-.855-.149h0ZM117.633,91.719h1.03c.399,0,.7-.061.902-.181s.304-.313.304-.579c0-.237-.063-.412-.188-.524-.126-.112-.282-.186-.468-.22-.187-.034-.369-.052-.55-.052h-1.03v1.556h0Z"/>
  <path class="st10" d="M149.556,91.341c0,.175.03.303.09.384s.153.14.279.179l-.14.373c-.164-.024-.311-.085-.439-.181s-.219-.242-.271-.438c-.307.41-.75.615-1.33.615-.426,0-.762-.12-1.005-.361-.244-.24-.365-.562-.365-.964,0-.438.17-.772.511-1.005.341-.232.836-.349,1.487-.349h.652v-.419c0-.336-.097-.572-.289-.708-.193-.135-.457-.203-.79-.203-.145,0-.309.017-.492.05-.183.032-.387.089-.611.168l-.148-.418c.26-.096.496-.163.708-.201.212-.039.417-.058.617-.058.506,0,.888.124,1.147.371.258.248.388.575.388.982v2.183h.001,0ZM147.845,91.866c.235,0,.456-.058.661-.173.205-.114.379-.274.521-.479v-1.23h-.714c-.512,0-.869.089-1.071.269-.203.179-.304.416-.304.712,0,.602.302.902.907.902h0Z"/>
  <path class="st10" d="M178.843,92.19v-3.86h-2.101v3.86h-.513v-4.308h3.126v4.308h-.513.001,0Z"/>
  <path class="st10" d="M207.619,87.805c.386,0,.691.093.919.279.227.186.39.446.488.781s.147.726.147,1.171c0,.433-.06.816-.179,1.153-.118.336-.301.601-.545.794-.245.192-.558.289-.938.289-.49,0-.881-.171-1.174-.513v2.075l-.509.07v-6.022h.419l.058.636c.152-.219.341-.393.563-.521.223-.128.473-.192.749-.192h.002,0ZM207.528,88.239c-.265,0-.499.08-.701.24s-.365.33-.488.511v2.231c.12.178.276.32.468.427s.399.16.624.16c.79,0,1.186-.594,1.186-1.78,0-.572-.087-1.013-.261-1.323s-.449-.466-.827-.466h-.001,0Z"/>
  <path class="st10" d="M237.004,87.805c.592,0,1.033.201,1.328.605.294.403.441.945.441,1.626,0,.427-.068.809-.201,1.145-.135.337-.334.603-.598.798-.264.196-.592.294-.982.294-.394,0-.723-.094-.986-.281s-.463-.448-.596-.783-.198-.723-.198-1.163.067-.829.2-1.165c.135-.337.335-.6.602-.79s.598-.285.99-.285h0ZM237.004,88.252c-.404,0-.711.146-.92.438-.209.293-.314.744-.314,1.354,0,1.184.408,1.776,1.223,1.776s1.223-.595,1.223-1.785c0-.604-.102-1.053-.306-1.346-.204-.292-.505-.438-.905-.438h-.001Z"/>
  <path class="st10" d="M268.275,87.883v4.308h-.509v-3.849h-1.826l-.114,1.321c-.041.476-.088.86-.14,1.155-.052.294-.117.528-.195.703-.077.175-.176.316-.293.425-.117.107-.263.213-.435.313l-.218-.332c.099-.061.188-.128.269-.203s.154-.187.22-.334c.065-.148.123-.356.172-.626.05-.27.092-.627.128-1.073l.139-1.809h2.803-.001Z"/>
  <path class="st10" d="M293.977,91.743h.274c.14-.118.256-.264.349-.439.094-.175.17-.421.23-.738s.107-.746.144-1.288l.094-1.395h2.671v3.86h.287v1.588h-.451l-.106-1.141h-2.934l-.106,1.141h-.451v-1.588h-.001ZM297.189,88.342h-1.653l-.053.887c-.025.413-.055.76-.091,1.042-.035.281-.082.515-.14.699-.057.185-.13.336-.219.455s-.199.226-.331.318h2.486v-3.401h.001Z"/>
  <path class="st10" d="M325.526,92.19v-2.056h-.533l-.903,2.056h-.537l1.001-2.314-.902-1.993h.57l.775,1.764h.529v-1.764h.533v1.764h.529l.795-1.764h.551l-.907,1.993,1.001,2.314h-.57l-.886-2.056h-.513v2.056s-.533,0-.533,0Z"/>
  <path class="st10" d="M355.215,87.805c.654,0,1.133.198,1.438.595.305.396.457.93.457,1.6,0,.449-.071.844-.215,1.186-.144.343-.358.609-.643.801s-.638.287-1.059.287c-.249,0-.505-.043-.769-.13-.265-.086-.493-.208-.688-.367l.263-.39c.369.279.769.419,1.197.419.392,0,.711-.127.958-.382.248-.254.387-.657.417-1.21h-2.171v-.468h2.167c-.044-.509-.183-.886-.415-1.13-.232-.245-.537-.367-.915-.367-.21,0-.417.032-.621.096s-.398.169-.585.314l-.263-.369c.184-.156.411-.276.682-.359s.525-.125.763-.125h.002Z"/>
  <g>
    <path class="st10" d="M384.721,74.477h.541l-.017,1.698,1.601-.529.16.496-1.608.514,1.005,1.361-.423.308-.988-1.378-.989,1.378-.422-.308,1.005-1.361-1.608-.514.16-.496,1.6.529-.016-1.698h-.001Z"/>
    <path class="st10" d="M383.018,85.778l.414-.21,3.533,7.262-.423.185-3.524-7.236h0Z"/>
  </g>
  <path class="st10" d="M83.213,63.758v1.588h-.452l-.106-1.141h-3.262v-4.308h.513v3.849h2.101v-3.849h.513v3.86h.693Z"/>
  <path class="st10" d="M112.46,59.897l-1.539,4.345c-.093.266-.208.517-.345.755s-.318.439-.545.605c-.227.165-.522.27-.886.313l-.09-.443c.301-.055.537-.137.708-.246s.305-.249.402-.418c.097-.17.184-.371.261-.604h-.168l-1.547-4.308h.55l1.358,3.873,1.313-3.873h.529-.001Z"/>
  <path class="st10" d="M138.667,64.205v-4.308h.509v1.772h.948l1.337-1.772h.632l-1.526,1.994,1.785,2.313h-.677l-1.559-2.067h-.939v2.067h-.51Z"/>
  <path class="st10" d="M168.591,62.257c.009.36.073.657.195.888s.282.401.482.511c.199.109.417.164.651.164.228,0,.43-.032.605-.098.177-.066.361-.166.556-.3l.267.382c-.199.152-.424.271-.675.356-.25.085-.494.127-.731.127-.397,0-.737-.093-1.02-.278-.283-.187-.5-.447-.65-.782s-.226-.726-.226-1.171c0-.438.076-.824.229-1.161.153-.336.365-.6.638-.79.272-.189.589-.285.95-.285.522,0,.931.188,1.227.561.295.373.443.881.443,1.523,0,.074-.002.141-.005.199s-.005.11-.008.154h-2.93.002ZM169.875,60.296c-.347,0-.639.123-.876.369-.236.246-.369.623-.399,1.132h2.449c-.011-.506-.125-.883-.341-1.13-.216-.248-.493-.371-.833-.371h0Z"/>
  <path class="st10" d="M200.44,64.205v-1.981h-2.109v1.981h-.509v-4.308h.509v1.879h2.109v-1.879h.508v4.308h-.508Z"/>
  <path class="st10" d="M228.415,64.205h-.508v-4.308h2.889l-.066.451h-2.314v3.856h-.001Z"/>
  <path class="st10" d="M260.591,59.897v4.308h-4.012v-4.308h.513v3.849h1.223v-3.849h.541v3.849h1.223v-3.849h.513-.001,0Z"/>
  <path class="st10" d="M290.828,63.758v1.588h-.451l-.107-1.141h-4.09v-4.308h.513v3.849h1.223v-3.849h.542v3.849h1.223v-3.849h.513v3.86h.636-.002,0Z"/>
  <path class="st10" d="M316.953,61.698h.775c.306,0,.55-.063.731-.192.183-.129.273-.295.273-.501,0-.251-.096-.438-.289-.558s-.469-.181-.826-.181c-.217,0-.445.035-.688.104-.242.07-.466.171-.671.302l-.259-.332c.208-.159.461-.285.758-.38.296-.094.586-.142.871-.142.301,0,.575.043.822.128.248.084.445.212.596.383.148.171.223.39.223.654,0,.241-.08.437-.24.587-.159.15-.354.26-.584.328.178.017.349.066.513.15.164.083.298.196.402.338.104.143.155.314.155.518,0,.301-.082.554-.246.761-.164.206-.387.361-.67.466-.283.104-.607.155-.971.155-.422,0-.777-.062-1.066-.187-.29-.124-.532-.266-.727-.425l.259-.353c.194.147.417.269.671.361.252.093.551.14.893.14.429,0,.751-.08.965-.24.215-.16.322-.373.322-.638,0-.263-.102-.456-.305-.579-.204-.123-.499-.185-.885-.185h-.845l.041-.484.002.002h0Z"/>
  <path class="st10" d="M346.064,64.205h-.603l1.624-2.276-1.411-2.031h.628l1.091,1.67,1.116-1.67h.611l-1.432,2.006,1.62,2.302h-.66l-1.276-1.92-1.309,1.92h.001Z"/>
  <g>
    <path class="st3" d="M69.394,45.749l.849.73-.574.623c-.169.184-.333.348-.488.492-.156.146-.321.272-.497.382h3.176v1.059h-3.163c.169.112.333.24.49.384s.318.307.482.49l.574.623-.849.73-2.482-2.757,2.482-2.757h0Z"/>
    <path class="st3" d="M69.377,59.749l2.482,2.757-2.482,2.757-.849-.73.574-.623c.165-.184.326-.347.484-.49s.321-.271.488-.384h-3.163v-1.059h3.175c-.175-.109-.34-.236-.497-.382-.156-.145-.318-.309-.488-.492l-.574-.623.849-.73h0Z"/>
  </g>
  <g>
    <path class="st3" d="M53.061,19.023c.208,0,.384.074.527.222s.215.322.215.525c0,.199-.072.372-.215.517s-.319.218-.527.218c-.202,0-.376-.073-.523-.218s-.22-.317-.22-.517c0-.203.073-.378.22-.525s.321-.222.523-.222ZM53.578,21.255l.181,3.647h-1.387l.168-3.647h1.038Z"/>
    <path class="st3" d="M55.363,30.51l.106,3.29h-.796l-.016-1.104c-.003-.249,0-.465.006-.648.007-.183.028-.38.063-.591h-.033l-.353,1.769h-.669l-.365-1.769h-.033c.039.203.062.396.07.579s.01.403.004.66l-.016,1.104h-.804l.09-2.58h-.583v2.58h-.886v-2.58h-.661v-.71h3.155l.365,2.002.345-2.002h1.011Z"/>
  </g>
  <g>
    <path class="st3" d="M24.007,18.638v1.288h1.235v.98h-1.235v.883h-1.091v-.883h-1.235v-.98h1.235v-1.288h1.091ZM25.242,22.24v.98h-3.561v-.98h3.561Z"/>
    <path class="st3" d="M23.618,30.391c.301,0,.586.042.855.125.27.084.511.193.724.33l-.459.76c-.339-.211-.695-.316-1.066-.316-.191,0-.337.036-.437.108-.1.073-.15.165-.15.277,0,.088.022.163.066.226.043.063.133.126.269.188.135.063.341.137.618.222.391.118.696.271.917.46.22.188.331.462.331.82,0,.235-.063.441-.189.617-.125.177-.279.322-.459.438.148.114.262.248.343.401s.121.331.121.533c0,.26-.075.49-.226.689-.151.2-.362.355-.634.468-.272.112-.594.168-.966.168-.328,0-.625-.041-.888-.125-.264-.083-.497-.194-.7-.334l.443-.796c.175.112.351.199.527.261.177.062.362.092.556.092.202,0,.36-.035.474-.106s.17-.163.17-.275c0-.087-.021-.162-.063-.226-.042-.062-.133-.127-.271-.192s-.352-.144-.642-.234c-.391-.12-.695-.273-.913-.461s-.326-.458-.326-.811c0-.235.065-.438.197-.611.131-.172.289-.315.472-.431-.317-.249-.476-.56-.476-.932,0-.257.073-.485.219-.687s.353-.359.62-.474.582-.173.946-.173h-.003ZM22.986,32.992c-.077.084-.131.173-.162.265-.032.091-.047.177-.047.256,0,.118.03.215.09.291.06.077.174.151.34.224.167.073.408.162.722.269.145-.183.217-.362.217-.537,0-.112-.03-.205-.09-.279-.061-.073-.174-.146-.341-.219s-.41-.162-.73-.269h.001Z"/>
  </g>
  <g>
    <path class="st3" d="M82.198,19.426l-.155-2.294h1.23l-.156,2.294h-.919Z"/>
    <path class="st3" d="M82.555,30.391c.65,0,1.161.142,1.532.425.37.283.634.68.789,1.189.156.511.234,1.107.234,1.791,0,.689-.035,1.271-.104,1.745-.07.475-.198.835-.384,1.081-.187.247-.454.37-.804.37-.208,0-.381-.053-.52-.156-.138-.104-.244-.241-.317-.412-.074-.171-.123-.359-.148-.564h-.032c-.091.208-.231.387-.423.537s-.434.226-.727.226c-.322,0-.581-.082-.775-.246-.193-.164-.334-.388-.42-.67-.086-.283-.13-.602-.13-.954,0-.676.142-1.213.425-1.61.283-.398.723-.597,1.319-.597.219,0,.447.029.685.088.238.059.47.149.693.272v2.462c0,.304.027.516.08.636.054.12.137.181.249.181.106,0,.184-.076.231-.228.048-.152.078-.397.09-.736.013-.34.019-.791.019-1.354,0-.574-.044-1.061-.133-1.458-.089-.398-.251-.701-.486-.909-.235-.207-.572-.312-1.01-.312-.292,0-.584.057-.875.17-.292.114-.596.309-.913.585l-.513-.603c.374-.329.751-.568,1.13-.721.379-.151.791-.228,1.237-.228,0,0,0,0,0,0ZM82.046,33.356c-.217,0-.363.102-.441.304-.078.203-.117.566-.117,1.092,0,.372.028.642.084.808.057.167.161.251.314.251.123,0,.216-.031.279-.093.062-.062.107-.137.135-.226s.047-.176.058-.261v-1.797c-.052-.027-.102-.047-.147-.06-.047-.012-.102-.019-.164-.019h0Z"/>
  </g>
  <g>
    <path class="st3" d="M112.697,17.391c.728,0,1.288.277,1.682.833l-.796.574c-.109-.161-.226-.274-.349-.339-.124-.063-.269-.096-.435-.096-.219,0-.389.061-.511.183-.122.121-.183.316-.183.584v.796h1.498v.673h-1.498v.628c0,.208-.034.398-.103.572s-.209.32-.423.441h2.671l-.156.98h-3.951v-.936c.208-.065.359-.145.455-.236s.157-.207.185-.347c.027-.139.042-.31.042-.513v-.591h-.604v-.673h.604v-.828c0-.328.071-.621.213-.878.143-.258.353-.46.632-.607s.621-.222,1.026-.222v.002h0,0Z"/>
    <path class="st3" d="M113.829,32.557l-.205,1.625h.513v.854h-.628l-.156,1.186h-1.071l.156-1.186h-.78l-.156,1.186h-1.071l.147-1.186h-.488v-.854h.603l.213-1.625h-.513v-.857h.628l.147-1.165h1.079l-.16,1.165h.784l.156-1.165h1.071l-.156,1.165h.497v.857h-.611,0ZM111.766,34.182h.779l.213-1.625h-.78l-.213,1.625h0Z"/>
  </g>
  <g>
    <path class="st3" d="M142.752,17.391c.331,0,.601.04.811.119.209.079.405.181.589.304l-.48.804c-.151-.104-.287-.176-.408-.217-.122-.041-.271-.062-.449-.062-.274,0-.503.082-.688.248-.185.165-.316.437-.396.814h1.694l-.172.673h-1.608v.582h1.485l-.18.681h-1.243c.063.372.18.643.351.811s.41.253.716.253c.225,0,.432-.036.622-.107.19-.07.366-.161.527-.271v1.034c-.203.099-.405.174-.607.226-.203.052-.415.078-.636.078-.629,0-1.133-.175-1.512-.523s-.628-.849-.749-1.5h-.755l.172-.681h.5v-.582h-.665l.172-.673h.591c.137-.63.406-1.122.809-1.478.402-.355.905-.533,1.509-.533h0Z"/>
    <path class="st3" d="M142.264,29.197v1.218c.336.027.639.101.909.218.269.117.504.261.704.431l-.628.656c-.15-.123-.31-.217-.478-.283-.168-.065-.337-.104-.506-.114v1.432c.366.123.677.261.933.412.256.152.451.339.584.561.134.221.201.496.201.824,0,.457-.148.85-.445,1.178-.296.328-.721.527-1.273.599v1.223h-.661v-1.198c-.405-.03-.766-.119-1.083-.269-.317-.149-.577-.319-.78-.511l.628-.722c.186.158.377.285.574.381s.417.152.661.169v-1.707c-.594-.194-1.018-.424-1.272-.689s-.381-.592-.381-.98c0-.443.148-.809.445-1.096.297-.287.7-.456,1.208-.508v-1.223h.661v-.002h-.001ZM141.604,31.33c-.167.027-.291.093-.371.195-.081.103-.121.218-.121.347,0,.137.028.251.084.342.056.092.192.188.408.29v-1.174ZM142.264,33.956v1.419c.339-.076.508-.301.508-.673,0-.158-.034-.297-.103-.416s-.204-.229-.406-.33c0,0,.001,0,.001,0Z"/>
  </g>
  <g>
    <path class="st3" d="M173.657,18.937l.189.57-4.542,1.48-.188-.562,4.541-1.489h0ZM170.42,17.391c.336,0,.603.106.798.32.195.213.293.496.293.849,0,.364-.098.649-.293.855-.195.207-.462.31-.798.31-.342,0-.612-.103-.811-.31-.198-.206-.297-.491-.297-.855,0-.342.099-.622.297-.841s.469-.328.811-.328ZM170.42,20.968c.336,0,.603.106.798.318s.293.494.293.847c0,.364-.098.648-.293.854s-.462.308-.798.308c-.348,0-.619-.103-.814-.308s-.293-.489-.293-.854c0-.339.098-.617.293-.837.195-.219.467-.328.814-.328h0ZM170.42,21.596c-.12,0-.198.05-.232.149-.034.101-.051.229-.051.388s.018.29.054.393c.035.103.111.153.229.153.117,0,.192-.05.224-.149s.047-.231.047-.396c0-.166-.016-.298-.047-.394s-.106-.144-.224-.144h0ZM170.42,18.015c-.12,0-.196.051-.228.151-.032.102-.048.232-.048.394,0,.159.017.29.05.393.032.103.107.153.226.153.117,0,.192-.05.224-.149s.047-.232.047-.396-.016-.296-.047-.396-.106-.149-.224-.149h0ZM172.758,20.968c.34,0,.605.106.798.318s.29.494.29.847c0,.364-.097.648-.29.854-.192.205-.458.308-.798.308-.344,0-.613-.103-.808-.308s-.291-.489-.291-.854c0-.339.097-.617.291-.837.194-.219.464-.328.808-.328h0ZM172.758,21.596c-.123,0-.2.05-.231.149-.031.101-.047.229-.047.388s.017.29.051.393.11.153.228.153.191-.05.222-.149.045-.231.045-.396c0-.166-.015-.298-.045-.394s-.104-.144-.222-.144h-.001,0Z"/>
    <path class="st3" d="M172.676,31.97c.337,0,.602.077.796.23s.333.356.417.609c.083.253.125.528.125.826s-.043.573-.127.825c-.085.251-.226.453-.423.604-.197.152-.467.228-.809.228-.29,0-.531-.07-.726-.211s-.361-.336-.501-.585c-.123.225-.276.413-.459.566-.184.153-.427.229-.73.229-.334,0-.598-.076-.792-.229s-.332-.356-.414-.609-.123-.528-.123-.826.042-.573.125-.825c.083-.251.225-.453.423-.604.198-.152.468-.229.81-.229.285,0,.524.071.719.214.193.143.363.339.508.591.121-.225.271-.414.454-.57.182-.156.424-.234.728-.234h0ZM170.408,32.815c-.314,0-.472.271-.472.812,0,.257.038.456.113.599s.189.214.342.214c.178,0,.312-.092.404-.273s.173-.402.244-.662c-.076-.178-.161-.337-.254-.479-.094-.141-.219-.211-.378-.211h0ZM172.525,32.815c-.175,0-.308.092-.398.274-.09.184-.173.404-.25.661.077.181.163.34.259.479s.223.21.382.21c.314,0,.472-.271.472-.812,0-.258-.039-.457-.117-.6-.078-.142-.193-.213-.347-.213h-.001Z"/>
  </g>
  <g>
    <path class="st3" d="M201.062,17.555l2.601,2.441-.747.796-.579-.566c-.169-.17-.302-.313-.398-.433s-.188-.26-.279-.421v3.849h-1.198v-3.84c-.077.145-.165.278-.265.399-.1.122-.235.268-.404.438l-.586.574-.747-.796,2.601-2.441h.001,0Z"/>
    <path class="st3" d="M201.662,31.772v3.848c.09-.161.183-.301.279-.42s.229-.264.398-.433l.579-.566.747.796-2.601,2.44-2.601-2.44.747-.796.586.574c.169.17.304.314.404.435s.188.255.265.402v-3.84h1.198-.001,0Z"/>
  </g>
  <g>
    <path class="st3" d="M228.435,16.98l1.014-.464,3.442,7.159-1.014.464-3.442-7.159Z"/>
    <path class="st3" d="M231.262,29.574v7.508h-1.206v-7.508s1.206,0,1.206,0Z"/>
  </g>
  <g>
    <path class="st3" d="M261.629,16.328v.902c-.249,0-.443.035-.583.104-.14.07-.199.209-.181.417l.128,1.21c.032.307,0,.554-.101.742-.101.189-.252.333-.456.434-.203.1-.443.17-.72.211.293.044.54.115.743.213.202.099.35.241.442.427.093.187.123.436.091.747l-.128,1.21c-.019.208.041.347.181.417.14.069.334.104.583.104v.902c-.755,0-1.285-.114-1.59-.343s-.429-.618-.371-1.171l.123-1.174c.021-.207-.014-.37-.104-.488-.092-.117-.227-.2-.404-.248s-.383-.071-.615-.071v-1.051c.229,0,.434-.023.611-.071s.312-.131.406-.248c.093-.118.128-.28.106-.488l-.123-1.165c-.061-.563.062-.958.369-1.184.306-.226.837-.339,1.592-.339h.001Z"/>
    <path class="st3" d="M259.082,37.229v-7.762h2.527v.968h-1.305v5.834h1.305v.96h-2.527Z"/>
  </g>
  <g>
    <path class="st3" d="M288.498,16.328c.755,0,1.285.113,1.59.341.305.227.429.618.371,1.173l-.123,1.174c-.021.208.014.37.106.488.093.117.228.2.404.248s.381.071.613.071v1.051c-.229,0-.434.023-.611.071s-.313.131-.406.248c-.093.118-.128.281-.106.488l.123,1.165c.062.562-.06.955-.367,1.182-.308.228-.839.341-1.594.341v-.902c.252,0,.447-.035.587-.104.14-.07.198-.209.176-.417l-.127-1.21c-.033-.309,0-.558.101-.745.1-.187.252-.33.457-.431.205-.1.446-.17.723-.211-.293-.044-.541-.115-.745-.213-.203-.099-.352-.242-.444-.429-.094-.188-.124-.436-.091-.745l.127-1.21c.022-.208-.037-.347-.178-.417-.142-.069-.336-.104-.585-.104v-.902h-.001Z"/>
    <path class="st3" d="M291.045,29.468v7.762h-2.527v-.968h1.305v-5.826h-1.305v-.968h2.527Z"/>
  </g>
  <g>
    <path class="st3" d="M321.327,21.025v1.005h-2.236l-.673,1.129-.656-.382.447-.747h-.607v-1.005h1.21l.427-.714h-1.637v-1.013h2.244l.66-1.104.652.365-.438.739h.607v1.013h-1.211l-.427.714h1.638Z"/>
    <path class="st3" d="M319.049,30.997c.24,0,.474.054.697.162.225.107.408.265.552.472.144.206.216.456.216.749s-.072.543-.216.752c-.144.21-.327.37-.552.48-.224.11-.457.166-.697.166s-.474-.056-.697-.166c-.225-.11-.408-.271-.552-.48s-.216-.46-.216-.752.072-.543.216-.749c.144-.207.327-.364.552-.472.224-.108.457-.162.697-.162ZM319.049,31.743c-.172,0-.311.058-.414.173-.104.114-.156.27-.156.464,0,.193.052.35.156.467.104.118.242.177.414.177.173,0,.311-.059.414-.177.104-.117.156-.273.156-.467s-.052-.35-.156-.464c-.104-.115-.241-.173-.414-.173Z"/>
  </g>
  <g>
    <path class="st3" d="M349.807,21.255v.263c0,.282-.045.512-.136.689s-.202.324-.337.439c-.134.114-.269.215-.404.299-.135.085-.248.173-.338.265s-.135.206-.135.343c0,.15.061.266.182.345.122.079.279.119.475.119.385,0,.726-.164,1.021-.492l.828.632c-.232.273-.512.488-.839.646s-.706.236-1.138.236c-.414,0-.76-.063-1.041-.191-.28-.127-.49-.295-.631-.504-.142-.21-.212-.436-.212-.68,0-.265.052-.481.153-.649.104-.169.23-.31.383-.423.15-.113.303-.221.455-.322.151-.101.278-.217.381-.347.104-.13.154-.296.154-.498v-.169h1.179ZM349.204,19.023c.205,0,.38.074.525.222.145.147.217.322.217.525,0,.199-.072.372-.217.517-.146.145-.32.218-.525.218-.208,0-.383-.073-.525-.218s-.213-.317-.213-.517c0-.203.07-.378.213-.525s.317-.222.525-.222Z"/>
    <path class="st3" d="M350.844,33.147v1.018h-3.561v-1.018h3.561Z"/>
  </g>
  <path class="st3" d="M378.665,34.584c-.222,0-.421-.052-.597-.154-.177-.103-.316-.243-.419-.421s-.153-.376-.153-.595c0-.224.051-.423.153-.597s.242-.312.419-.412c.176-.102.375-.152.597-.152.224,0,.424.052.599.154s.314.241.417.416c.103.176.153.375.153.6,0,.222-.051.42-.153.595s-.242.313-.417.414c-.175.102-.375.152-.599.152h0Z"/>
  <g>
    <path class="st3" d="M393.899,48.85l-.948-1.738.743-.473,1.398,1.805v.821l-1.398,1.801-.743-.472.948-1.744h0ZM395.819,48.85l-.948-1.738.747-.473,1.403,1.805v.821l-1.403,1.801-.747-.472.948-1.744h0Z"/>
    <path class="st3" d="M395.092,63.594l-.746.472-1.396-1.801v-.821l1.396-1.805.746.473-.947,1.738.947,1.744h0ZM397.021,63.594l-.747.472-1.403-1.801v-.821l1.403-1.805.747.473-.948,1.738.948,1.744h0Z"/>
  </g>
  <g>
    <path class="st3" d="M76.598,75.662c.203,0,.378.041.527.123s.283.178.402.287.234.205.345.287.228.123.351.123c.156,0,.29-.056.4-.166s.221-.271.33-.478l.726.328c-.175.38-.375.69-.601.933s-.521.363-.888.363c-.197,0-.37-.041-.519-.123-.149-.082-.284-.178-.404-.287-.121-.109-.237-.205-.349-.287s-.23-.123-.353-.123c-.159,0-.293.058-.404.172-.11.115-.219.271-.326.468l-.726-.324c.112-.229.237-.442.374-.64s.295-.355.476-.476c.18-.12.394-.181.64-.181h-.001Z"/>
    <path class="st3" d="M76.729,88.133c.186,0,.344.024.474.074.13.049.245.104.344.168.1.062.194.119.283.168s.184.074.285.074c.145,0,.255-.043.33-.13.075-.086.146-.19.211-.313l.714.382c-.082.167-.182.328-.299.483-.118.156-.259.284-.423.384s-.361.149-.591.149c-.183,0-.34-.023-.472-.071s-.247-.103-.347-.164c-.1-.062-.194-.116-.283-.164s-.184-.072-.285-.072c-.145,0-.255.042-.33.126-.075.083-.146.185-.211.305l-.714-.373c.085-.167.186-.329.302-.486s.257-.286.422-.388c.166-.101.362-.151.589-.151h.001ZM76.729,89.708c.186,0,.344.024.474.074.13.049.245.105.344.168.1.062.194.119.283.168.089.05.184.074.285.074.145,0,.255-.042.33-.125.075-.084.146-.187.211-.31l.714.381c-.082.167-.182.328-.299.484-.118.156-.259.284-.423.384s-.361.149-.591.149c-.183,0-.34-.023-.472-.071s-.247-.104-.347-.167c-.1-.062-.194-.118-.283-.166s-.184-.071-.285-.071c-.145,0-.255.042-.33.125s-.146.187-.211.31l-.714-.382c.085-.169.186-.332.302-.488.116-.155.257-.284.422-.385.166-.102.362-.152.589-.152,0,0,0,0,.001,0Z"/>
  </g>
  <g>
    <path class="st3" d="M65.124,102.584v4.752h-4.751v-4.752h4.751ZM64.09,103.536h-2.683v2.847h2.683v-2.847Z"/>
    <path class="st3" d="M63.556,115.072l-1.936-.771.504-.973,1.789,1.088s-.357.656-.357.656Z"/>
  </g>
  <g>
    <path class="st3" d="M94.723,102.584v4.752h-4.751v-4.752h2.946l.279-1.082h1.202l-.295,1.082h.62-.001ZM92.307,104.935l.361-1.399h-1.662v.616h1.05l.25.783s0,0,0,0ZM91.006,106.383h2.683v-2.268l-.575,2.117h-1.583l-.525-1.449v1.6Z"/>
    <path class="st3" d="M92.356,113.951c.427,0,.809.1,1.146.296.338.196.605.466.802.806.197.341.295.725.295,1.151,0,.421-.099.801-.295,1.138-.197.338-.464.605-.802.803-.337.197-.72.295-1.146.295-.429,0-.816-.098-1.159-.295s-.614-.465-.812-.803c-.198-.337-.297-.717-.297-1.138,0-.427.099-.811.297-1.151s.469-.609.812-.806.73-.296,1.159-.296ZM92.356,114.498c-.314,0-.595.074-.841.225-.247.15-.44.354-.581.611-.141.258-.211.547-.211.87,0,.317.07.603.211.857.141.255.334.455.581.603.246.148.526.223.841.223.312,0,.589-.074.831-.223.242-.147.432-.348.57-.603s.208-.54.208-.857c0-.323-.069-.612-.208-.87-.138-.257-.328-.461-.57-.611s-.519-.225-.831-.225ZM92.184,114.965c.733,0,1.1.24,1.1.723,0,.155-.045.287-.135.396-.09.108-.205.189-.345.244l.636.968h-.677l-.513-.845h-.189v.845h-.591v-2.33h.714ZM92.241,115.404h-.181v.57h.189c.287,0,.431-.102.431-.304,0-.178-.146-.267-.439-.267h0Z"/>
  </g>
  <g>
    <path class="st3" d="M124.324,102.584v4.752h-4.751v-4.752h4.751ZM123.29,103.536h-2.683v2.847h2.683v-2.847ZM122.58,103.684l.628.628-.632.632.632.648-.628.627-.632-.647-.647.647-.628-.627.648-.648-.648-.632.628-.628.647.633.632-.633Z"/>
    <path class="st3" d="M122.892,115.994l.718.719-.964.943.964.943-.718.719-.944-.965-.943.965-.718-.719.964-.943-.964-.943.718-.719.943.965.944-.965Z"/>
  </g>
  <g>
    <path class="st3" d="M151.969,119.293c.178,0,.346-.035.503-.104s.313-.159.47-.269l.578.82c-.191.164-.425.301-.699.41-.275.109-.582.164-.921.164-.468,0-.87-.096-1.206-.289-.337-.193-.596-.461-.775-.804-.181-.343-.271-.742-.271-1.196s.093-.857.277-1.212.447-.633.787-.835c.341-.203.745-.304,1.213-.304.331,0,.626.046.884.138.259.092.496.228.712.408l-.562.779c-.148-.104-.304-.185-.468-.242s-.336-.086-.514-.086c-.292,0-.528.104-.707.31-.18.206-.269.555-.269,1.044,0,.32.042.572.127.758.085.184.2.314.347.393s.311.117.494.117h0Z"/>
    <path class="st3" d="M152.362,119.746l.144.423c-.38.133-.633.275-.757.426s-.187.31-.187.477c0,.134.043.234.129.301s.202.102.347.102c.088,0,.166-.006.236-.018.069-.01.139-.023.207-.041l-.099.768c-.074.02-.149.035-.226.047-.076.013-.163.02-.259.02-.347,0-.641-.088-.88-.264-.239-.174-.358-.425-.358-.75,0-.287.075-.523.226-.708s.354-.337.613-.458c.258-.119.546-.228.863-.323v-.002s.001,0,.001,0Z"/>
  </g>
  <g>
    <path class="st3" d="M181.255,106.564l-.747.471-1.395-1.801v-.82l1.395-1.805.747.472-.948,1.739.948,1.744ZM183.184,106.564l-.747.471-1.403-1.801v-.82l1.403-1.805.747.472-.948,1.739.948,1.744Z"/>
    <path class="st3" d="M182.322,119.511l-.8.524-1.547-1.801v-.82l1.547-1.805.8.529-1.05,1.682,1.05,1.69h0Z"/>
  </g>
  <g>
    <path class="st3" d="M209.662,104.82l-.948-1.739.743-.472,1.399,1.805v.82l-1.399,1.801-.743-.471.948-1.744ZM211.582,104.82l-.948-1.739.747-.472,1.403,1.805v.82l-1.403,1.801-.747-.471.948-1.744Z"/>
    <path class="st3" d="M210.618,117.82l-1.042-1.682.792-.529,1.555,1.805v.82l-1.555,1.801-.792-.524,1.042-1.69h0Z"/>
  </g>
  <g>
    <path class="st3" d="M240.14,102.773c0,.207-.074.383-.222.527-.147.143-.332.215-.554.215-.219,0-.399-.072-.544-.215-.144-.145-.215-.32-.215-.527,0-.117.018-.24.055-.369s.102-.29.195-.484l.586-1.219h.734l-.352,1.453c.096.068.172.154.229.258.059.104.087.225.087.361h.001ZM242.055,102.773c0,.207-.074.383-.223.527-.149.143-.333.215-.553.215s-.4-.072-.547-.215c-.146-.145-.22-.32-.22-.527,0-.117.019-.24.058-.369.038-.129.106-.29.205-.484l.582-1.219h.734l-.36,1.453c.099.068.177.154.235.258s.088.225.088.361h.001Z"/>
    <path class="st3" d="M241.1,115.773c0,.207-.074.383-.224.527-.149.143-.333.215-.552.215-.222,0-.404-.072-.55-.215-.146-.145-.218-.32-.218-.527,0-.117.019-.24.056-.369s.104-.29.203-.484l.587-1.219h.73l-.354,1.453c.099.068.177.154.234.258s.086.225.086.361h.002Z"/>
  </g>
  <g>
    <path class="st3" d="M268.243,101.375c0-.211.075-.387.226-.527.15-.142.334-.212.55-.212.219,0,.401.07.548.212.146.141.22.316.22.527,0,.119-.021.242-.06.369-.04.125-.107.288-.203.488l-.583,1.214h-.734l.354-1.456c-.099-.068-.176-.152-.232-.253-.056-.1-.084-.221-.084-.362h-.002,0ZM270.151,101.375c0-.211.075-.387.226-.527.15-.142.333-.212.55-.212.219,0,.401.07.548.212.146.141.219.316.219.527,0,.119-.019.242-.058.369-.038.125-.104.288-.2.488l-.587,1.214h-.734l.361-1.456c-.099-.068-.178-.152-.236-.253-.059-.1-.088-.221-.088-.362h0Z"/>
    <path class="st3" d="M269.191,114.443c0-.207.074-.383.224-.526.148-.144.333-.216.552-.216.222,0,.404.072.55.216.145.144.217.319.217.526,0,.118-.019.241-.055.37-.037.128-.105.29-.203.483l-.587,1.219h-.73l.353-1.452c-.098-.071-.176-.157-.233-.261-.058-.103-.086-.223-.086-.359h-.002,0Z"/>
  </g>
  <g>
    <path class="st3" d="M297.843,106.597c0-.21.075-.387.226-.529.15-.142.333-.213.55-.213.219,0,.401.071.548.213.146.143.219.319.219.529,0,.12-.019.244-.057.372-.039.127-.107.287-.206.481l-.582,1.218h-.734l.361-1.451c-.099-.072-.178-.158-.236-.262-.059-.102-.088-.222-.088-.358h0ZM299.75,106.597c0-.21.075-.387.226-.529.15-.142.334-.213.55-.213.219,0,.401.071.548.213.146.143.22.319.22.529,0,.12-.02.244-.058.372-.038.127-.105.287-.201.481l-.587,1.218h-.734l.361-1.451c-.099-.072-.177-.158-.235-.262-.06-.102-.089-.222-.089-.358,0,0-.001,0-.001,0Z"/>
    <path class="st3" d="M298.799,119.597c0-.21.074-.387.224-.529.148-.142.332-.213.552-.213s.404.071.55.213c.145.143.217.319.217.529,0,.12-.019.244-.058.372-.038.127-.104.287-.201.481l-.595,1.218h-.729l.36-1.451c-.099-.072-.176-.158-.233-.262-.058-.102-.086-.222-.086-.358h-.001,0Z"/>
  </g>
  <g>
    <path class="st3" d="M328.236,104.369c0-.167.041-.319.123-.457.082-.139.192-.249.332-.332.14-.084.293-.126.459-.126.17,0,.324.042.462.126.138.083.248.193.33.332.082.138.123.29.123.457,0,.164-.041.316-.123.455-.082.14-.192.252-.33.334-.138.084-.292.126-.462.126-.166,0-.319-.042-.459-.126-.14-.082-.25-.194-.332-.334-.082-.139-.123-.291-.123-.455Z"/>
    <path class="st3" d="M326.808,119.634c0-.191.068-.356.207-.495.138-.137.303-.207.494-.207.194,0,.359.07.496.207.137.139.205.304.205.495s-.068.356-.205.497c-.137.139-.302.209-.496.209-.191,0-.356-.07-.494-.209-.139-.141-.207-.306-.207-.497ZM328.449,119.634c0-.191.069-.356.207-.495.139-.137.303-.207.494-.207.194,0,.36.07.497.207.137.139.205.304.205.495s-.068.356-.205.497c-.137.139-.303.209-.497.209-.191,0-.355-.07-.494-.209-.138-.141-.207-.306-.207-.497ZM330.089,119.634c0-.191.069-.356.208-.495.138-.137.303-.207.494-.207.194,0,.359.07.496.207.137.139.205.304.205.495s-.068.356-.205.497c-.137.139-.302.209-.496.209-.191,0-.356-.07-.494-.209-.139-.141-.208-.306-.208-.497Z"/>
  </g>
  <g>
    <path class="st3" d="M356.289,105.111v-1.009h4.923v1.009h-4.923Z"/>
    <path class="st3" d="M356.51,118.111v-1.009h4.48v1.009h-4.48Z"/>
  </g>
  <g>
    <path class="st3" d="M109.304,73.504v7.409l-1.087.091v-6.622h-.681v6.531l-1.087.091v-3.984c-.585-.055-1.026-.234-1.321-.539s-.443-.709-.443-1.212c0-.342.077-.646.232-.911.154-.266.385-.474.691-.626.307-.151.688-.228,1.145-.228h2.552-.001Z"/>
    <path class="st3" d="M107.15,86.36c.301,0,.586.042.855.125.27.084.511.193.724.33l-.459.76c-.339-.211-.695-.316-1.066-.316-.191,0-.337.036-.437.108-.1.073-.15.165-.15.277,0,.088.022.163.066.226.043.063.133.126.269.188.135.063.341.137.618.222.391.118.696.271.917.46.22.188.331.462.331.82,0,.235-.063.441-.189.617-.125.177-.279.322-.459.438.148.114.262.248.343.401s.121.331.121.533c0,.26-.075.49-.226.689-.151.2-.362.355-.634.468-.272.112-.594.168-.966.168-.328,0-.625-.041-.888-.125-.264-.083-.497-.194-.7-.334l.443-.796c.175.112.351.199.527.261.177.062.362.092.556.092.202,0,.36-.035.474-.106s.17-.163.17-.275c0-.087-.021-.162-.063-.226-.042-.062-.133-.127-.271-.192s-.352-.144-.642-.234c-.391-.12-.695-.273-.913-.461s-.326-.458-.326-.811c0-.235.065-.438.197-.611.131-.172.289-.315.472-.431-.317-.249-.476-.56-.476-.932,0-.257.073-.485.219-.687s.353-.359.62-.474.582-.173.946-.173h-.003ZM106.518,88.962c-.077.084-.131.173-.162.265-.032.091-.047.177-.047.256,0,.118.03.215.09.291.06.077.174.151.34.224.167.073.408.162.722.269.145-.183.217-.362.217-.537,0-.112-.03-.205-.09-.279-.061-.073-.174-.146-.341-.219s-.41-.162-.73-.269h.001Z"/>
  </g>
  <path class="st3" d="M166.136,87.689c.495,0,.902.099,1.222.296.32.196.559.469.716.816s.236.746.236,1.197c0,.433-.082.825-.244,1.178-.163.353-.403.633-.72.841s-.707.312-1.169.312c-.643,0-1.154-.196-1.533-.589-.378-.393-.568-.943-.568-1.651,0-.071.002-.149.006-.234.004-.084.01-.161.019-.229h2.954c-.017-.353-.111-.611-.283-.775s-.403-.246-.693-.246c-.216,0-.418.03-.607.09-.188.061-.372.158-.549.292l-.534-.727c.211-.172.463-.311.757-.414.294-.104.624-.156.991-.156h-.001,0ZM166.177,91.411c.271,0,.481-.078.632-.232.15-.154.232-.412.246-.773h-1.764v.046c.014.301.094.535.24.705.146.17.362.255.646.255h0Z"/>
  <g>
    <path class="st3" d="M195.351,74.689c.399,0,.704.105.914.316.211.21.34.5.386.869l.197-1.042h1.169l-.693,2.035.222.947c.047.194.107.326.183.396.075.069.173.117.294.142l-.423.977c-.235-.041-.429-.112-.581-.212-.151-.1-.255-.286-.31-.56l-.09-.436c-.2.805-.651,1.207-1.354,1.207-.511,0-.914-.202-1.208-.605s-.44-.968-.44-1.692c0-.451.071-.854.215-1.206s.346-.631.605-.833.564-.304.915-.304h-.001ZM195.531,75.638c-.191,0-.339.112-.442.338-.104.226-.156.578-.156,1.057,0,.489.053.838.158,1.044.105.207.241.31.408.31.099,0,.196-.038.293-.114.098-.077.189-.215.277-.415.087-.199.162-.482.226-.849-.077-.501-.179-.854-.306-1.061s-.279-.31-.458-.31Z"/>
    <path class="st3" d="M196.339,87.607v1.288h1.235v.98h-1.235v.883h-1.091v-.883h-1.235v-.98h1.235v-1.288h1.091ZM197.575,91.21v.98h-3.562v-.98h3.562Z"/>
  </g>
  <g>
    <path class="st3" d="M226.493,74.768c.301,0,.534.101.701.302s.25.439.25.716c0,.32-.091.655-.272,1.007s-.428.726-.738,1.122-.657.822-1.04,1.276c-.383-.454-.729-.879-1.04-1.274s-.557-.769-.738-1.12c-.183-.351-.273-.688-.273-1.011,0-.276.084-.515.253-.716.168-.201.401-.302.699-.302.284,0,.508.072.671.218.162.145.306.352.429.619.123-.268.267-.475.431-.619.164-.146.387-.218.669-.218h-.002Z"/>
    <path class="st3" d="M223.69,92.19v-.902h-.504v-.678h.504v-.472h-.504v-.837h.504v-2.798h1.461c.774,0,1.373.152,1.797.455.424.304.636.762.636,1.375,0,.394-.094.725-.283.992-.188.269-.451.471-.789.607s-.731.205-1.18.205h-.3v.472h1.133v.678h-1.133v.902h-1.342ZM225.032,89.302h.209c.299,0,.532-.075.702-.226.169-.15.254-.397.254-.742,0-.312-.085-.539-.256-.682-.171-.142-.428-.213-.77-.213h-.14v1.862h.001Z"/>
  </g>
  <path class="st3" d="M254.993,87.689c.449,0,.83.096,1.145.287s.555.461.723.807c.166.346.25.751.25,1.216,0,.728-.186,1.298-.559,1.711-.371.413-.891.62-1.559.62s-1.188-.204-1.559-.611c-.372-.408-.559-.979-.559-1.711,0-.462.084-.867.252-1.215.169-.347.411-.618.727-.812.316-.193.695-.291,1.139-.291h0ZM255.83,90.356h-1.683c.033.377.12.645.262.802.141.157.335.236.584.236.24,0,.432-.079.574-.236s.23-.425.263-.802ZM254.993,88.621c-.243,0-.436.079-.576.238-.141.158-.229.414-.261.767h1.665c-.032-.353-.118-.608-.258-.767s-.33-.238-.57-.238h0Z"/>
  <path class="st3" d="M285.261,87.833v1.358h.074c.604,0,1.044.121,1.318.365.275.243.413.618.413,1.124,0,.5-.149.877-.447,1.13-.299.253-.693.38-1.186.38h-1.219v-3.496h-.488l-.033.87c-.019.471-.052.86-.098,1.169-.047.31-.115.563-.206.762-.09.198-.21.362-.358.494-.149.131-.335.253-.556.365l-.415-.805c.082-.06.155-.128.22-.205.064-.076.12-.186.166-.328.047-.142.086-.336.117-.582s.056-.567.071-.965l.07-1.637h2.557,0ZM285.335,89.954h-.074v1.448h.086c.203,0,.354-.053.451-.158.099-.104.148-.299.148-.58,0-.252-.045-.433-.134-.544-.089-.11-.248-.166-.478-.166h.001Z"/>
  <g>
    <path class="st3" d="M315.013,73.504l1.739,5.687h-5.112l1.74-5.687h1.633ZM314.176,74.473l-.866,3.622h1.739l-.873-3.622h0Z"/>
    <path class="st3" d="M312.908,86.118c.791.162,1.426.41,1.906.747.479.336.828.762,1.046,1.275.218.515.326,1.122.326,1.822,0,.421-.078.812-.233,1.171-.156.359-.387.648-.691.868-.306.219-.684.328-1.135.328-.389,0-.73-.08-1.027-.24s-.529-.388-.697-.684c-.169-.295-.253-.646-.253-1.05,0-.372.067-.702.201-.991.134-.288.32-.515.558-.679s.514-.246.825-.246c.251,0,.47.049.654.147s.344.232.478.402c-.117-.528-.356-.952-.718-1.271-.361-.32-.868-.559-1.521-.714l.282-.887v.002h-.001ZM314.11,89.388c-.175,0-.329.076-.463.229-.135.151-.201.41-.201.777,0,.317.06.565.181.746.12.181.292.271.517.271.181,0,.322-.058.425-.173s.176-.269.22-.462c.043-.192.066-.405.069-.638v-.295c-.115-.161-.23-.277-.347-.349s-.25-.107-.4-.107h-.001Z"/>
  </g>
  <path class="st3" d="M343.433,92.19v-1.908h-.214l-.611,1.908h-1.16l.919-2.339-.895-2.019h1.132l.6,1.731h.229v-1.731h.878v1.731h.229l.632-1.731h1.1l-.886,2.019.541,1.383h.542v2.388h-.812l-.16-1.432h-.328l-.645-1.908h-.213v1.908s-.878,0-.878,0Z"/>
  <path class="st3" d="M373.753,87.689c.645,0,1.183.183,1.612.546l-.546.722c-.164-.111-.331-.194-.501-.248-.169-.053-.335-.08-.496-.08-.287,0-.518.075-.691.226s-.282.386-.326.706h1.724v.812h-1.724c.038.363.149.623.335.779.185.156.417.233.699.233.339,0,.663-.109.972-.328l.555.747c-.208.164-.454.293-.739.386-.284.093-.581.14-.89.14-.474,0-.878-.097-1.213-.29-.335-.192-.591-.46-.767-.804-.177-.343-.265-.742-.265-1.196s.093-.857.278-1.212c.187-.354.448-.633.786-.835s.736-.304,1.196-.304h.001Z"/>
  <path class="st3" d="M402.634,75.854l-.241-1.525h1.197l-.25,1.525,1.219-.968.599,1.034-1.432.554,1.432.562-.599,1.038-1.219-.988.25,1.542h-1.197l.241-1.542-1.206.988-.603-1.038,1.464-.562-1.464-.554.603-1.034,1.206.968Z"/>
  <path class="st3" d="M402.393,86.16h1.019l-.146,1.279,1.171-.536.316.967-1.266.255.869.954-.818.591-.635-1.114-.634,1.114-.819-.591.87-.954-1.266-.255.316-.967,1.171.536-.146-1.279h-.002Z"/>
  <g>
    <path class="st3" d="M399.974,89.777h1.019l-.146,1.279,1.171-.536.316.967-1.266.255.869.954-.818.591-.635-1.114-.634,1.114-.819-.591.87-.954-1.266-.255.316-.967,1.171.536-.146-1.279h-.002Z"/>
    <path class="st3" d="M404.813,89.777h1.019l-.146,1.279,1.171-.536.316.967-1.266.255.869.954-.818.591-.635-1.114-.634,1.114-.819-.591.87-.954-1.266-.255.316-.967,1.171.536-.146-1.279h-.002Z"/>
  </g>
  <g>
    <path class="st3" d="M98.764,50.806c-.363,0-.704-.068-1.024-.204-.32-.137-.602-.325-.844-.568-.243-.242-.432-.523-.568-.844-.136-.32-.204-.661-.204-1.024s.068-.704.204-1.023c.136-.32.325-.602.568-.845.243-.242.524-.432.844-.567.32-.136.661-.204,1.024-.204s.704.068,1.024.204c.32.136.602.325.844.567.243.243.432.524.568.845.136.319.204.661.204,1.023s-.068.704-.204,1.024-.325.602-.568.844c-.243.243-.524.432-.844.568s-.661.204-1.024.204ZM98.756,49.934c.325,0,.621-.08.888-.24s.479-.373.636-.64c.157-.267.236-.561.236-.881,0-.325-.079-.621-.236-.888-.158-.267-.37-.479-.636-.636s-.562-.236-.888-.236c-.32,0-.614.079-.88.236s-.48.369-.64.636-.24.562-.24.888c0,.32.08.614.24.881s.373.479.64.64.56.24.88.24ZM98.764,48.726c-.149,0-.28-.055-.392-.164s-.168-.241-.168-.396c0-.154.056-.286.168-.396.112-.109.243-.164.392-.164.155,0,.287.055.396.164s.164.241.164.396-.055.287-.164.396-.241.164-.396.164Z"/>
    <path class="st3" d="M98.994,57.981c.506,0,.936.123,1.29.367.354.245.625.574.812.987s.281.875.281,1.387c0,.509-.094.969-.281,1.382s-.458.741-.812.982c-.354.242-.784.363-1.29.363-.52,0-.958-.121-1.315-.363-.357-.241-.627-.569-.81-.982-.184-.413-.275-.873-.275-1.382,0-.512.095-.974.285-1.387s.464-.742.822-.987c.358-.244.789-.367,1.292-.367h0ZM98.994,58.552c-.396,0-.721.098-.974.294-.253.195-.44.457-.56.785-.121.328-.181.692-.181,1.092,0,.396.06.758.181,1.085.12.326.307.587.56.781s.578.291.974.291.717-.097.968-.291.438-.455.558-.781c.12-.327.18-.688.18-1.085,0-.399-.06-.764-.178-1.092-.119-.328-.304-.59-.556-.785-.251-.196-.576-.294-.972-.294ZM99.067,59.102c.203,0,.379.031.529.095.15.062.292.161.423.295l-.402.501c-.074-.061-.146-.106-.217-.138-.071-.031-.153-.047-.246-.047-.156,0-.286.069-.39.207s-.156.371-.156.699c0,.326.049.557.148.693.098.137.231.205.398.205.112,0,.212-.021.301-.065s.167-.096.236-.156l.37.538c-.126.117-.271.215-.433.293s-.347.117-.552.117c-.429,0-.769-.141-1.02-.423-.25-.281-.375-.683-.375-1.202,0-.506.13-.901.39-1.186.26-.284.592-.427.997-.427h-.001Z"/>
  </g>
  <path class="st3" d="M127.954,66.022v-1.854l-1.633-4.319h1.407l.882,3.225.919-3.225h1.321l-1.633,4.312v1.728l-1.264.135v-.002h0Z"/>
  <path class="st3" d="M156.585,64.205v-3.43h-.861v-.927h2.158v1.661h.521l.865-1.661h1.26l-1.128,2.019,1.243,2.338h-1.37l-.903-1.834h-.488v1.834h-1.297Z"/>
  <g>
    <path class="st3" d="M188.393,45.634v1.178h1.354v1.046h-1.354v1.107h1.354v1.055h-1.354v1.186h-1.215v-1.186h-1.354v-1.055h1.354v-1.107h-1.354v-1.046h1.354v-1.178h1.215Z"/>
    <path class="st3" d="M188.393,58.634v1.178h1.354v1.046h-1.354v3.348h-1.215v-3.348h-1.354v-1.046h1.354v-1.178h1.215Z"/>
  </g>
  <path class="st3" d="M217.812,64.205v-1.735h-1.182v1.735h-1.296v-4.356h1.296v1.661h1.182v-1.661h1.297v3.4h.578v2.388h-.973l-.164-1.432h-.738,0Z"/>
  <path class="st3" d="M247.035,64.205h-1.296v-1.743h-.62v-.812h.62v-1.801h3.417l-.144.997h-1.978v.804h.956v.812h-.956v1.743h.001,0Z"/>
  <path class="st3" d="M276.446,63.418c.216,0,.391-.034.523-.103.132-.068.198-.171.198-.308,0-.094-.025-.171-.077-.234-.053-.062-.152-.123-.3-.181s-.366-.126-.656-.205c-.399-.106-.725-.26-.975-.459-.25-.2-.375-.492-.375-.878,0-.389.162-.71.485-.965.324-.254.793-.381,1.405-.381.389,0,.728.05,1.016.149s.538.227.749.38l-.518.763c-.18-.112-.374-.201-.582-.269s-.417-.101-.628-.101c-.416,0-.623.112-.623.336,0,.074.026.138.079.191.054.053.154.107.302.164.147.056.364.125.648.207.281.079.527.171.736.274.209.104.371.243.486.417s.172.402.172.688c0,.316-.094.583-.283.798-.188.215-.438.375-.75.481s-.654.16-1.026.16c-.421,0-.793-.061-1.115-.181-.323-.12-.598-.278-.825-.476l.652-.73c.17.132.362.241.577.328.214.088.449.132.703.132l.002.003h0ZM276.753,65.395c0-.11-.062-.183-.188-.22s-.314-.056-.566-.056l.115-1.046h.722v.525c.287.032.501.12.643.265.141.144.211.325.211.547,0,.279-.111.507-.334.684-.224.176-.521.265-.893.265-.194,0-.376-.026-.544-.078s-.309-.11-.42-.177l.303-.595c.08.041.165.074.255.101s.181.039.271.039c.132,0,.235-.02.312-.058.077-.038.115-.104.115-.196h-.002,0Z"/>
  <path class="st3" d="M306.608,63.323c.178,0,.346-.035.503-.104.157-.07.313-.159.47-.269l.578.82c-.191.164-.425.301-.699.41-.275.109-.582.164-.921.164-.468,0-.87-.097-1.206-.289-.337-.193-.596-.461-.775-.804-.181-.344-.271-.742-.271-1.196s.093-.858.277-1.212c.185-.354.447-.633.787-.835.341-.203.745-.304,1.213-.304.331,0,.626.046.884.137.259.092.496.229.712.408l-.562.78c-.148-.104-.304-.185-.468-.242s-.336-.086-.514-.086c-.292,0-.528.103-.707.31-.18.206-.269.555-.269,1.044,0,.32.042.572.127.757s.2.315.347.394.311.117.494.117h0ZM306.666,65.395c0-.11-.063-.183-.188-.22-.126-.037-.314-.056-.566-.056l.115-1.046h.722v.525c.287.032.501.12.642.265.142.144.212.325.212.547,0,.279-.111.507-.335.684-.223.176-.521.265-.892.265-.194,0-.376-.026-.544-.078s-.309-.11-.421-.177l.304-.595c.079.041.164.074.255.101.09.026.181.039.271.039.131,0,.235-.02.312-.058.077-.038.115-.104.115-.196h-.002,0Z"/>
  <path class="st0" d="M334.706,61.551h.789c.232,0,.408-.044.526-.133.119-.089.179-.207.179-.355,0-.153-.064-.268-.195-.345-.129-.076-.309-.114-.535-.114-.216,0-.432.026-.646.08-.215.053-.41.135-.588.244l-.559-.689c.252-.178.537-.312.857-.4s.658-.133,1.014-.133c.377,0,.713.046,1.008.14.293.093.525.229.695.41.169.181.254.4.254.66,0,.246-.092.45-.273.611s-.439.286-.773.373c.395.044.704.146.93.304.226.159.338.405.338.738,0,.307-.096.563-.287.771s-.452.365-.783.472c-.33.106-.707.16-1.128.16-.435,0-.817-.052-1.146-.156-.33-.104-.61-.243-.843-.418l.558-.747c.229.135.456.233.679.298s.469.097.736.097c.293,0,.511-.049.654-.146.144-.098.216-.229.216-.396,0-.331-.266-.496-.796-.496h-.952l.073-.829h-.002Z"/>
  <g>
    <path class="st3" d="M334.709,61.551h.788c.232,0,.408-.044.526-.133.119-.089.18-.207.18-.355,0-.153-.065-.268-.195-.345-.13-.076-.309-.114-.535-.114-.217,0-.432.026-.646.08-.215.053-.411.135-.589.244l-.558-.689c.252-.178.537-.312.857-.4s.658-.133,1.014-.133c.377,0,.713.046,1.007.14.294.093.525.229.695.41.169.181.255.4.255.66,0,.246-.092.45-.273.611s-.439.286-.773.373c.395.044.703.146.93.304.225.159.338.405.338.738,0,.307-.096.563-.287.771s-.453.365-.783.472c-.331.106-.707.16-1.129.16-.435,0-.816-.052-1.146-.156s-.61-.243-.843-.418l.558-.747c.23.135.457.233.68.298s.468.097.736.097c.293,0,.51-.049.654-.146.143-.098.215-.229.215-.396,0-.331-.266-.496-.795-.496h-.953l.074-.829h-.002,0Z"/>
    <path class="st3" d="M336.414,63.774l.144.422c-.381.134-.633.276-.757.427-.125.15-.188.31-.188.477,0,.134.043.234.13.301.086.067.201.101.347.101.087,0,.166-.005.235-.017.07-.011.139-.024.207-.041l-.098.768c-.074.02-.149.035-.226.047-.077.013-.163.019-.259.019-.348,0-.641-.087-.88-.263-.239-.175-.359-.425-.359-.75,0-.288.075-.523.226-.708s.355-.337.613-.458c.259-.12.547-.228.864-.323v-.002h.001,0Z"/>
  </g>
  <path class="st3" d="M363.514,64.205v-6.088l1.297-.127v2.675c.15-.161.328-.289.535-.384.206-.095.428-.142.662-.142.395,0,.7.117.919.351s.329.576.329,1.028v2.687h-1.297v-2.604c0-.189-.034-.32-.103-.395-.068-.073-.174-.11-.315-.11-.143,0-.274.04-.395.121-.12.08-.232.184-.336.31v2.679h-1.297.001,0Z"/>
  <g>
    <path class="st11" d="M412.271,75.457h-.416l-.075.307h-.352l.435-1.422h.408l.436,1.422h-.36l-.075-.307h-.001ZM411.908,75.213h.308l-.153-.629-.154.629h-.001Z"/>
    <path class="st11" d="M413.261,75.566c.055,0,.098-.008.131-.025.033-.017.05-.043.05-.077,0-.022-.006-.042-.02-.059-.013-.016-.038-.03-.074-.045-.037-.014-.092-.031-.164-.051-.101-.027-.182-.065-.244-.115s-.094-.123-.094-.22.041-.177.122-.24c.081-.064.197-.096.351-.096.098,0,.182.013.254.037.072.025.135.057.188.095l-.129.191c-.046-.028-.094-.051-.146-.067-.052-.017-.104-.025-.156-.025-.104,0-.156.028-.156.084,0,.019.007.034.021.048.013.014.038.027.075.041.037.015.091.031.162.052.07.02.132.043.184.069.053.025.093.061.122.104.028.044.043.101.043.172,0,.079-.023.146-.071.199-.047.054-.109.094-.188.121-.078.026-.163.04-.256.04-.105,0-.199-.016-.279-.046-.081-.029-.149-.069-.206-.118l.163-.183c.042.032.09.06.144.082.054.021.112.032.176.032h-.003Z"/>
    <path class="st11" d="M415.037,75.7c-.042.027-.094.051-.153.069-.061.02-.128.029-.203.029-.143,0-.248-.037-.317-.109-.069-.073-.104-.172-.104-.297v-.494h-.229v-.224h.229v-.236l.324-.039v.275h.351l-.032.224h-.318v.494c0,.054.012.093.037.115.024.023.063.035.117.035.039,0,.074-.005.105-.014.032-.009.061-.021.086-.035l.107.206h0Z"/>
    <path class="st11" d="M415.568,75.313c.011.089.04.152.087.191.047.038.105.058.175.058.05,0,.098-.008.145-.024.046-.017.091-.038.134-.065l.131.176c-.052.044-.113.08-.187.108-.073.027-.155.042-.249.042-.124,0-.229-.025-.312-.074-.084-.05-.147-.118-.189-.205-.043-.087-.063-.187-.063-.3,0-.107.021-.205.062-.292.041-.088.101-.158.18-.211.079-.052.176-.078.29-.078.104,0,.193.022.27.066.076.045.136.108.178.192.042.083.063.184.063.3,0,.019,0,.038-.002.06s-.003.04-.005.057h-.708,0ZM415.769,74.856c-.059,0-.105.021-.141.062-.036.041-.058.108-.064.199h.399c0-.079-.016-.143-.046-.19s-.08-.071-.148-.071h0Z"/>
    <path class="st11" d="M416.528,75.764v-.218h.144v-.656h-.144v-.215h.391l.06.245c.039-.094.088-.164.148-.21s.135-.068.223-.068c.037,0,.069.003.099.009.028.006.056.014.081.024l-.061.455h-.203v-.201c-.062.011-.116.044-.162.1-.047.057-.083.125-.108.206v.312h.216v.218h-.684Z"/>
    <path class="st11" d="M418.414,74.675v.867h.276v.222h-.909v-.222h.309v-.646h-.299v-.221h.623ZM418.217,74.104c.056,0,.102.018.138.052.035.035.053.078.053.131,0,.052-.018.095-.053.131-.036.035-.082.053-.138.053-.057,0-.103-.018-.139-.053-.036-.036-.054-.079-.054-.131,0-.053.018-.096.054-.131.036-.034.082-.052.139-.052Z"/>
    <path class="st11" d="M419.416,75.566c.055,0,.098-.008.131-.025.033-.017.05-.043.05-.077,0-.022-.006-.042-.02-.059-.013-.016-.038-.03-.074-.045-.037-.014-.092-.031-.164-.051-.101-.027-.182-.065-.244-.115s-.094-.123-.094-.22.041-.177.122-.24c.081-.064.197-.096.351-.096.098,0,.182.013.254.037.072.025.135.057.188.095l-.129.191c-.046-.028-.094-.051-.146-.067-.052-.017-.104-.025-.156-.025-.104,0-.156.028-.156.084,0,.019.007.034.021.048.013.014.038.027.075.041.037.015.091.031.162.052.07.02.132.043.184.069.053.025.093.061.122.104.028.044.043.101.043.172,0,.079-.023.146-.071.199-.047.054-.109.094-.188.121-.078.026-.163.04-.256.04-.105,0-.199-.016-.279-.046-.081-.029-.149-.069-.206-.118l.163-.183c.042.032.09.06.144.082.054.021.112.032.176.032h-.003Z"/>
    <path class="st11" d="M420.534,74.208v1.556h-.324v-1.522l.324-.033h0ZM421.244,74.675l-.358.481.388.607h-.369l-.357-.597.357-.492h.34-.001Z"/>
    <path class="st11" d="M412.635,77.452c0,.15-.021.281-.064.394-.043.111-.107.198-.191.261-.084.062-.188.093-.313.093-.124,0-.228-.03-.312-.091s-.148-.146-.192-.258c-.043-.111-.064-.244-.064-.398,0-.15.021-.281.064-.393.044-.111.107-.198.192-.26s.188-.093.312-.093c.125,0,.229.029.313.09s.148.146.191.258.064.244.064.397h0ZM412.291,77.452c0-.175-.018-.302-.052-.382-.035-.079-.093-.118-.173-.118s-.138.039-.172.119c-.035.08-.053.207-.053.381,0,.175.018.303.054.382.035.079.093.119.171.119.082,0,.141-.04.174-.121.034-.08.051-.207.051-.38h0Z"/>
    <path class="st11" d="M413.428,77.039c.095,0,.171.023.229.07.058.048.101.114.128.2.026.086.04.188.04.307,0,.112-.017.212-.049.3-.033.088-.081.157-.143.208-.062.05-.138.075-.227.075-.106,0-.192-.038-.259-.114v.5l-.324.033v-1.543h.287l.015.122c.044-.058.093-.098.146-.122s.104-.036.156-.036h.001ZM413.328,77.278c-.038,0-.071.011-.1.033s-.056.054-.079.093v.459c.022.034.046.059.071.074.024.016.055.023.089.023.058,0,.102-.026.134-.078.032-.053.049-.14.049-.263,0-.09-.007-.16-.02-.209-.014-.05-.032-.085-.057-.104-.024-.02-.054-.029-.088-.029h.001Z"/>
    <path class="st11" d="M414.337,77.714c.011.089.04.152.087.191.047.038.105.058.175.058.05,0,.098-.008.145-.024.046-.017.091-.038.134-.065l.131.176c-.052.044-.113.08-.187.108-.073.027-.155.042-.249.042-.124,0-.229-.025-.312-.074-.084-.05-.147-.118-.189-.205-.043-.087-.063-.187-.063-.3,0-.107.021-.205.062-.292.041-.088.101-.158.18-.211.079-.052.176-.078.29-.078.104,0,.193.022.27.066.076.045.136.108.178.192.042.083.063.184.063.3,0,.019,0,.038-.002.06s-.003.04-.005.057h-.708,0ZM414.539,77.257c-.059,0-.105.021-.141.062-.036.041-.058.108-.064.199h.399c0-.079-.016-.143-.046-.19s-.08-.071-.148-.071h0Z"/>
    <path class="st11" d="M415.297,78.164v-.218h.144v-.656h-.144v-.215h.391l.06.245c.039-.094.088-.164.148-.21s.135-.068.223-.068c.037,0,.069.003.099.009.028.006.056.014.081.024l-.061.455h-.203v-.201c-.062.011-.116.044-.162.1-.047.057-.083.125-.108.206v.312h.216v.218h-.684Z"/>
    <path class="st11" d="M417.434,77.851c0,.041.006.07.017.089.012.019.03.032.055.042l-.066.214c-.064-.007-.118-.021-.162-.043s-.079-.056-.104-.102c-.042.051-.095.088-.16.111-.064.024-.131.037-.198.037-.112,0-.202-.032-.269-.096-.066-.064-.1-.146-.1-.247,0-.118.046-.21.139-.273.093-.064.223-.097.392-.097h.146v-.041c0-.111-.072-.167-.216-.167-.035,0-.079.005-.134.015s-.109.023-.164.042l-.075-.215c.07-.026.144-.047.22-.061s.145-.021.205-.021c.162,0,.281.033.359.099.077.066.116.161.116.286v.427h-.001,0ZM416.925,77.967c.035,0,.071-.01.109-.031.039-.021.067-.05.088-.089v-.176h-.08c-.091,0-.157.014-.199.041-.042.028-.063.068-.063.122,0,.042.013.074.038.098.026.023.062.035.107.035h0Z"/>
    <path class="st11" d="M418.728,78.101c-.042.027-.094.051-.153.069-.061.02-.128.029-.203.029-.143,0-.248-.037-.317-.109-.069-.073-.104-.172-.104-.297v-.494h-.229v-.224h.229v-.236l.324-.039v.275h.351l-.032.224h-.318v.494c0,.054.012.093.037.115.024.023.063.035.117.035.039,0,.074-.005.105-.014.032-.009.061-.021.086-.035l.107.206h0Z"/>
    <path class="st11" d="M419.451,77.039c.112,0,.208.023.286.071.079.048.139.115.181.202.042.086.062.188.062.304,0,.182-.047.324-.14.428s-.223.155-.39.155-.297-.051-.39-.153c-.093-.102-.14-.244-.14-.428,0-.115.021-.217.063-.304s.103-.154.182-.203c.079-.048.174-.072.284-.072h.002ZM419.451,77.278c-.066,0-.115.026-.147.081-.031.055-.047.141-.047.259,0,.121.016.208.047.262.032.054.081.081.147.081s.115-.027.147-.081c.031-.054.048-.142.048-.264,0-.117-.017-.203-.048-.257-.032-.055-.081-.081-.147-.081Z"/>
    <path class="st11" d="M420.22,78.164v-.218h.144v-.656h-.144v-.215h.391l.06.245c.039-.094.088-.164.148-.21s.135-.068.223-.068c.037,0,.069.003.099.009.028.006.056.014.081.024l-.061.455h-.203v-.201c-.062.011-.116.044-.162.1-.047.057-.083.125-.108.206v.312h.216v.218h-.684Z"/>
  </g>
  <line class="st1" x1="3" y1="63.378" x2="10.224" y2="63.378"/>
  <polyline class="st1" points="8.051 61.206 10.224 63.378 8.051 65.55"/>
  <g>
    <path class="st1" d="M420.355,63.378h6.004c.989,0,1.22-.231,1.22-1.22v-1.23c0-.989-.231-1.22-1.22-1.22h-2.392"/>
    <polyline class="st1" points="422.528 65.55 420.355 63.378 422.528 61.206"/>
  </g>
  <line class="st1" x1="10.567" y1="61.206" x2="10.567" y2="65.55"/>
  <g>
    <polygon class="st1" points="7.93 91.013 6.91 91.013 6.91 92.673 4.09 92.673 4.09 91.013 3.07 91.013 5.5 88.183 7.93 91.013"/>
    <line class="st1" x1="3.84" y1="93.675" x2="7.16" y2="93.675"/>
  </g>
  <polygon class="st1" points="7.93 118.964 6.91 118.964 6.91 120.624 4.09 120.624 4.09 118.964 3.07 118.964 5.5 116.134 7.93 118.964"/>
  <polygon class="st1" points="422.719 118.964 423.739 118.964 423.739 120.624 426.559 120.624 426.559 118.964 427.579 118.964 425.149 116.134 422.719 118.964"/>
  <polyline class="st1" points="54.24 130.621 56.918 127.943 59.596 130.621"/>
  <g>
    <polyline class="st1" points="82.758 127.943 84.539 127.943 86.915 132.675 88.696 132.675"/>
    <line class="st1" x1="86.915" y1="127.943" x2="88.696" y2="127.943"/>
  </g>
  <path class="st1" d="M121.233,130.913c-.842,0-1.039.197-1.039.917s.197.917.917.917.917-.197.917-1.039v-2.727c0-.842-.197-1.039-.917-1.039s-.917.197-.917.917.197.917,1.039.917h2.727c.842,0,1.039-.197,1.039-.917s-.197-.917-.917-.917-.917.197-.917,1.039v2.727c0,.842.197,1.039.917,1.039s.917-.197.917-.917-.197-.917-1.039-.917h-2.727Z"/>
  <g>
    <polyline class="st1" points="315.528 127.943 317.309 127.943 319.685 132.675 321.466 132.675"/>
    <line class="st1" x1="319.685" y1="127.943" x2="321.466" y2="127.943"/>
  </g>
  <path class="st1" d="M282.94,130.913c.842,0,1.039.197,1.039.917s-.197.917-.917.917-.917-.197-.917-1.039v-2.727c0-.842.197-1.039.917-1.039s.917.197.917.917-.197.917-1.039.917h-2.727c-.842,0-1.039-.197-1.039-.917s.197-.917.917-.917.917.197.917,1.039v2.727c0,.842-.197,1.039-.917,1.039s-.917-.197-.917-.917.197-.917,1.039-.917h2.727Z"/>
  <g>
    <path class="st8" d="M427.579,34.695v1.7c0,.68-.077,1.1-.326,1.35s-.669.33-1.354.33h-2.52l-2.53-2.53,2.53-2.53h2.52c.685,0,1.105.08,1.354.33s.326.67.326,1.35Z"/>
    <g>
      <line class="st1" x1="426.283" y1="34.51" x2="424.214" y2="36.579"/>
      <line class="st1" x1="426.283" y1="36.579" x2="424.214" y2="34.51"/>
    </g>
  </g>
  <path class="st3" d="M381.84,18.28h-2.82c-.12-.02-.23-.04-.32-.04-.1,0-.24.03-.47.09-.2.05-.48.13-.9.25-.28.08-.63.19-.7.2h-.27c-.39,0-.69.31-.69.7v1.43c0,.44.33.74.78.74h.31c.2,0,.44.09.71.19.36.13.76.28,1.22.28h.89c.63,0,.98-.39,1.06-.78.21-.15.34-.37.37-.63.21-.16.32-.4.32-.68v-.07c.83-.14,1.3-.49,1.3-.98,0-.35-.27-.7-.79-.7ZM379.04,21.58h-.36c-.69,0-1.32-.47-1.92-.47h-.31c-.18,0-.24-.08-.24-.2v-1.43c0-.08.05-.16.14-.16h.29c.2,0,1.8-.54,2.06-.54.43,0,1.42.5,1.42.86,0,.09-.07.17-.19.17-.34,0-1.1-.36-1.27-.36-.11,0-.18.11-.24.21-.22.35-.81.45-1.21.45-.05,0-.12.02-.12.07,0,.14.38.15.49.15h.44c.3,0,.38.16.38.38,0,.43.25.72.64.84v.03ZM379.62,21.52c-.42,0-.97-.32-.97-.59,0-.06.02-.15.1-.15.12,0,.44.38,1.1.38.13,0,.19-.02.23-.02.02,0,.03.01.03.02,0,.22-.23.36-.49.36ZM379.91,21c-.48,0-1.14-.31-1.14-.63,0-.11.04-.18.1-.18.03,0,.67.38,1.4.38.13,0,.21,0,.21.04,0,.26-.24.39-.57.39ZM380.2,20.39c-.27,0-1.2-.18-1.2-.45,0-.03.02-.14.07-.14.07,0,.52.18.82.18.22,0,.34-.05.41-.27.01-.03.03-.05.05-.05.1,0,.45.15.45.37,0,.23-.18.36-.6.36ZM380.4,19.5c-.05,0-.07,0-.11-.05-.14-.2-.38-.43-.73-.59v-.04h2.28c.22,0,.25.11.25.16,0,.24-.57.52-1.69.52Z"/>
  <g>
    <polygon class="st3" points="137.4 88.99 138.55 90.81 137.37 90.81 136.82 89.94 135.59 92.19 134.45 92.19 136.23 89.01 135.14 87.28 136.32 87.28 136.82 88.06 137.51 86.79 138.65 86.79 137.4 88.99"/>
    <path class="st4" d="M136.454,77.89l1.148-4.386h1.202l-1.542,5.686h-1.588l-1.223-3.553h1.28l.722,2.252Z"/>
  </g>
</svg>